<?xml version="1.0" encoding="UTF-8" standalone="no"?>
<svg
   width="242.48711"
   viewBox="0 0 242.48711 280"
   version="1.1"
   id="svg317"
   sodipodi:docname="geocountries.svg"
   xml:space="preserve"
   inkscape:version="1.2 (1:1.2+202206011326+fc4e4096c5)"
   height="280"
   inkscape:export-filename="geocountries.png"
   inkscape:export-xdpi="149"
   inkscape:export-ydpi="149"
   xmlns:inkscape="http://www.inkscape.org/namespaces/inkscape"
   xmlns:sodipodi="http://sodipodi.sourceforge.net/DTD/sodipodi-0.dtd"
   xmlns="http://www.w3.org/2000/svg"
   xmlns:svg="http://www.w3.org/2000/svg"><sodipodi:namedview
     id="namedview319"
     pagecolor="#ffffff"
     bordercolor="#999999"
     borderopacity="1"
     inkscape:showpageshadow="0"
     inkscape:pageopacity="0"
     inkscape:pagecheckerboard="0"
     inkscape:deskcolor="#d1d1d1"
     showgrid="false"
     inkscape:zoom="0.834386"
     inkscape:cx="74.306136"
     inkscape:cy="-11.385618"
     inkscape:window-width="1860"
     inkscape:window-height="1016"
     inkscape:window-x="0"
     inkscape:window-y="0"
     inkscape:window-maximized="1"
     inkscape:current-layer="svg317" /><defs
     id="defs286"><pattern
       id="hatch"
       patternUnits="userSpaceOnUse"
       width="5"
       height="5"
       patternTransform="rotate(45)"><line
         x1="0"
         y1="5"
         x2="0"
         stroke="white"
         stroke-linejoin="butt"
         stroke-width="1.3333333333333333"
         stroke-opacity="0.25"
         id="line283" /></pattern><clipPath
       clipPathUnits="userSpaceOnUse"
       id="clipPath9331"><path
         d="m 466.09492,125.2375 v 249.525 L 250.00002,499.525 33.905069,374.7625 V 125.2375 L 250.00002,0.47499908 Z"
         stroke="none"
         fill="#e63e32"
         id="path9333"
         style="fill:#e8c020;fill-opacity:0.509267;stroke-width:0.949997" /></clipPath><clipPath
       clipPathUnits="userSpaceOnUse"
       id="clipPath9335"><path
         d="m 466.09492,125.2375 v 249.525 L 250.00002,499.525 33.905069,374.7625 V 125.2375 L 250.00002,0.47499908 Z"
         stroke="none"
         fill="#e63e32"
         id="path9337"
         style="fill:#e8c020;fill-opacity:0.509267;stroke-width:0.949997" /></clipPath><clipPath
       clipPathUnits="userSpaceOnUse"
       id="clipPath9339"><path
         d="m 466.09492,125.2375 v 249.525 L 250.00002,499.525 33.905069,374.7625 V 125.2375 L 250.00002,0.47499908 Z"
         stroke="none"
         fill="#e63e32"
         id="path9341"
         style="fill:#e8c020;fill-opacity:0.509267;stroke-width:0.949997" /></clipPath><clipPath
       clipPathUnits="userSpaceOnUse"
       id="clipPath9343"><path
         d="m 466.09492,125.2375 v 249.525 L 250.00002,499.525 33.905069,374.7625 V 125.2375 L 250.00002,0.47499908 Z"
         stroke="none"
         fill="#e63e32"
         id="path9345"
         style="fill:#e8c020;fill-opacity:0.509267;stroke-width:0.949997" /></clipPath><clipPath
       clipPathUnits="userSpaceOnUse"
       id="clipPath9349"><path
         d="m 466.09492,125.2375 v 249.525 L 250.00002,499.525 33.905069,374.7625 V 125.2375 L 250.00002,0.47499908 Z"
         stroke="none"
         fill="#e63e32"
         id="path9351"
         style="fill:#e8c020;fill-opacity:0.509267;stroke-width:0.949997" /></clipPath><clipPath
       clipPathUnits="userSpaceOnUse"
       id="clipPath9355"><path
         d="m 466.09492,125.2375 v 249.525 L 250.00002,499.525 33.905069,374.7625 V 125.2375 L 250.00002,0.47499908 Z"
         stroke="none"
         fill="#e63e32"
         id="path9357"
         style="fill:#e8c020;fill-opacity:0.509267;stroke-width:0.949997" /></clipPath><clipPath
       clipPathUnits="userSpaceOnUse"
       id="clipPath9361"><path
         d="m 466.09492,125.2375 v 249.525 L 250.00002,499.525 33.905069,374.7625 V 125.2375 L 250.00002,0.47499908 Z"
         stroke="none"
         fill="#e63e32"
         id="path9363"
         style="fill:#e8c020;fill-opacity:0.509267;stroke-width:0.949997" /></clipPath><clipPath
       clipPathUnits="userSpaceOnUse"
       id="clipPath9367"><path
         d="m 466.09492,125.2375 v 249.525 L 250.00002,499.525 33.905069,374.7625 V 125.2375 L 250.00002,0.47499908 Z"
         stroke="none"
         fill="#e63e32"
         id="path9369"
         style="fill:#e8c020;fill-opacity:0.509267;stroke-width:0.949997" /></clipPath><clipPath
       clipPathUnits="userSpaceOnUse"
       id="clipPath9367-9"><path
         d="m 466.09492,125.2375 v 249.525 L 250.00002,499.525 33.905069,374.7625 V 125.2375 L 250.00002,0.47499908 Z"
         stroke="none"
         fill="#e63e32"
         id="path9369-3"
         style="fill:#e8c020;fill-opacity:0.509267;stroke-width:0.949997" /></clipPath><clipPath
       clipPathUnits="userSpaceOnUse"
       id="clipPath9361-6"><path
         d="m 466.09492,125.2375 v 249.525 L 250.00002,499.525 33.905069,374.7625 V 125.2375 L 250.00002,0.47499908 Z"
         stroke="none"
         fill="#e63e32"
         id="path9363-0"
         style="fill:#e8c020;fill-opacity:0.509267;stroke-width:0.949997" /></clipPath><clipPath
       clipPathUnits="userSpaceOnUse"
       id="clipPath9355-6"><path
         d="m 466.09492,125.2375 v 249.525 L 250.00002,499.525 33.905069,374.7625 V 125.2375 L 250.00002,0.47499908 Z"
         stroke="none"
         fill="#e63e32"
         id="path9357-2"
         style="fill:#e8c020;fill-opacity:0.509267;stroke-width:0.949997" /></clipPath><clipPath
       clipPathUnits="userSpaceOnUse"
       id="clipPath9343-6"><path
         d="m 466.09492,125.2375 v 249.525 L 250.00002,499.525 33.905069,374.7625 V 125.2375 L 250.00002,0.47499908 Z"
         stroke="none"
         fill="#e63e32"
         id="path9345-1"
         style="fill:#e8c020;fill-opacity:0.509267;stroke-width:0.949997" /></clipPath><clipPath
       clipPathUnits="userSpaceOnUse"
       id="clipPath9339-8"><path
         d="m 466.09492,125.2375 v 249.525 L 250.00002,499.525 33.905069,374.7625 V 125.2375 L 250.00002,0.47499908 Z"
         stroke="none"
         fill="#e63e32"
         id="path9341-7"
         style="fill:#e8c020;fill-opacity:0.509267;stroke-width:0.949997" /></clipPath><clipPath
       clipPathUnits="userSpaceOnUse"
       id="clipPath9335-9"><path
         d="m 466.09492,125.2375 v 249.525 L 250.00002,499.525 33.905069,374.7625 V 125.2375 L 250.00002,0.47499908 Z"
         stroke="none"
         fill="#e63e32"
         id="path9337-2"
         style="fill:#e8c020;fill-opacity:0.509267;stroke-width:0.949997" /></clipPath><clipPath
       clipPathUnits="userSpaceOnUse"
       id="clipPath9331-0"><path
         d="m 466.09492,125.2375 v 249.525 L 250.00002,499.525 33.905069,374.7625 V 125.2375 L 250.00002,0.47499908 Z"
         stroke="none"
         fill="#e63e32"
         id="path9333-2"
         style="fill:#e8c020;fill-opacity:0.509267;stroke-width:0.949997" /></clipPath><clipPath
       clipPathUnits="userSpaceOnUse"
       id="clipPath9349-3"><path
         d="m 466.09492,125.2375 v 249.525 L 250.00002,499.525 33.905069,374.7625 V 125.2375 L 250.00002,0.47499908 Z"
         stroke="none"
         fill="#e63e32"
         id="path9351-7"
         style="fill:#e8c020;fill-opacity:0.509267;stroke-width:0.949997" /></clipPath></defs><clipPath
     id="sphere"><path
       d="M 33.181299,213.59791 C 30.051971,209.24339 26.922644,204.62169 25.35798,202.31085 23.793316,200 23.793316,200 23.793316,200 c 0,0 0,0 0,0 0,0 0,0 0,0 0,0 0,0 0,0 0,0 0,0 0,0 0,0 0,0 0,0 0,0 0,0 0,0 0,0 0,0 0,0 0,0 0,0 0,0 0,0 0,0 0,0 0,0 0,0 0,0 0,0 0,0 0,0 0,0 0,0 0,0 0,0 0,0 0,0 0,0 0,0 0,0 0,0 0,0 0,0 0,0 0,0 0,0 0,0 0,0 0,0 0,0 0,0 0,0 0,0 0,0 0,0 0,0 0,0 0,0 0,0 0,0 0,0 0,0 0,0 0,0 0,0 0,0 0,0 0,0 0,0 0,0 0,0 0,0 0,0 0,0 0,0 0,0 0,0 0,0 0,0 0,0 0,0 0,0 0,0 0,0 0,0 0,0 0,0 0,0 0,0 0,0 0,0 0,0 0,0 0,0 0,0 0,0 0,0 0,0 0,0 0,0 0,0 0,0 0,0 0,0 0,0 0,0 0,0 0,0 0,0 0,0 0,0 0,0 0,0 0,0 0.1116,-0.17452 0.1116,-0.17452 0.334799,-0.52355 1.999284,-2.97236 1.664485,-2.44881 4.770255,-6.9974 7.876025,-11.28518 3.105771,-4.28779 6.211541,-8.31478 9.317311,-12.11338 3.10577,-3.7986 6.21154,-7.36882 9.31731,-10.73653 3.10577,-3.36771 6.21154,-6.53293 9.31731,-9.5165 3.105771,-2.98358 6.211541,-5.78552 9.317311,-8.42277 3.10577,-2.63725 6.21154,-5.10981 9.31731,-7.4315 3.10577,-2.3217 6.21154,-4.49254 9.31731,-6.52383 3.10577,-2.0313 6.211541,-3.92306 9.317311,-5.68456 3.105772,-1.7615 6.211542,-3.39273 9.317312,-4.90128 3.10577,-1.50854 6.21154,-2.89439 9.31731,-4.16369 3.10577,-1.26929 6.21154,-2.42203 9.31731,-3.46312 3.10577,-1.04109 6.21154,-1.97052 9.31731,-2.79212 3.10577,-0.82161 6.21154,-1.53538 9.31731,-2.14418 3.10577,-0.6088 6.21154,-1.11264 9.31731,-1.51348 3.10577,-0.40084 6.21154,-0.69868 9.31731,-0.8947 3.10577,-0.19601 6.21154,-0.29018 9.31731,-0.28289 3.10577,0.007 6.21154,0.11608 9.31731,0.32674 3.10577,0.21067 6.21154,0.52322 9.31731,0.93889 3.10577,0.41566 6.21154,0.93443 9.31731,1.55835 3.10577,0.62391 6.21154,1.35297 9.31731,2.19011 3.10577,0.83713 6.21154,1.78233 9.31731,2.83951 3.10577,1.05717 6.21154,2.22631 9.31731,3.5124 3.10577,1.2861 6.21154,2.68915 9.31731,4.21538 3.10577,1.52623 6.21154,3.17565 9.31731,4.95593 3.10577,1.78029 6.21154,3.69144 9.31731,5.74287 3.10577,2.05143 6.21154,4.24314 9.31731,6.58661 3.10577,2.34348 6.21154,4.83872 9.31731,7.49975 3.10577,2.66104 6.21154,5.48787 9.31731,8.4977 3.10577,3.00983 6.21154,6.20264 9.31731,9.59964 3.10577,3.397 6.21154,6.99818 9.31731,10.82983 3.10577,3.83165 6.21155,7.89378 9.31732,12.21934 3.10577,4.32556 6.21154,8.91455 7.76442,11.20905 C 322.61685,200 322.61685,200 322.61685,200 c 0,0 0,0 0,0 0,0 0,0 0,0 0,0 0,0 0,0 0,0 0,0 0,0 0,0 0,0 0,0 0,0 0,0 0,0 0,0 0,0 0,0 0,0 0,0 0,0 0,0 0,0 0,0 0,0 0,0 0,0 0,0 0,0 0,0 0,0 0,0 0,0 0,0 0,0 0,0 0,0 0,0 0,0 0,0 0,0 0,0 0,0 0,0 0,0 0,0 0,0 0,0 0,0 0,0 0,0 0,0 0,0 0,0 0,0 0,0 0,0 0,0 0,0 0,0 0,0 0,0 0,0 0,0 0,0 0,0 0,0 0,0 0,0 0,0 0,0 0,0 0,0 0,0 0,0 0,0 0,0 0,0 0,0 0,0 0,0 0,0 0,0 0,0 0,0 0,0 0,0 0,0 0,0 0,0 0,0 0,0 0,0 0,0 0,0 0,0 0,0 0,0 0,0 0,0 0,0 0,0 0,0 0,0 0,0 0,0 0,0 0,0 0,0 0,0 0,0 0,0 0,0 0,0 0,0 0,0 0,0 0,0 0,0 -0.11904,0.1861 -0.11904,0.18609 -0.35713,0.55829 -1.93103,2.88195 -1.5739,2.32366 -4.48362,6.59879 -7.39334,10.6432 -2.90972,4.04442 -5.81945,7.85813 -8.72917,11.46832 -2.90972,3.61019 -5.81944,7.01686 -8.72916,10.242 -2.90973,3.22515 -5.81945,6.26877 -8.72917,9.14881 -2.90972,2.88004 -5.81944,5.59651 -8.72917,8.16415 -2.90972,2.56764 -5.81944,4.98646 -8.72916,7.26862 -2.90973,2.28217 -5.81945,4.42768 -8.72917,6.44664 -2.90972,2.01896 -5.81944,3.91135 -8.72917,5.68556 -2.90972,1.77421 -5.81944,3.43024 -8.72916,4.97501 -2.90972,1.54477 -5.81945,2.97828 -8.72917,4.30627 -2.90972,1.32799 -5.81944,2.55045 -8.72916,3.67206 -2.90973,1.1216 -5.81945,2.14236 -8.72917,3.06604 -2.90972,0.92368 -5.81945,1.75028 -8.72917,2.48276 -2.90972,0.73249 -5.81944,1.37086 -8.72916,1.91735 -2.90973,0.54649 -5.81945,1.0011 -8.72917,1.3654 -2.90972,0.3643 -5.81944,0.63828 -8.72917,0.82288 -2.90972,0.1846 -5.81944,0.27982 -8.72916,0.28598 -2.90972,0.006 -5.81945,-0.0767 -8.72917,-0.24898 -2.90972,-0.17224 -5.81944,-0.43382 -8.72917,-0.78563 -2.90972,-0.35181 -5.81944,-0.79385 -8.72916,-1.32764 -2.90972,-0.53379 -5.81945,-1.15933 -8.72917,-1.87881 -2.90972,-0.71948 -5.81944,-1.53289 -8.72916,-2.44316 -2.90973,-0.91026 -5.81945,-1.91737 -8.72917,-3.02505 -2.90972,-1.10767 -5.81944,-2.31591 -8.72917,-3.62932 -2.90972,-1.31341 -5.81944,-2.732 -8.72916,-4.26141 -2.90973,-1.5294 -5.819448,-3.16963 -8.72917,-4.92752 -2.909722,-1.75789 -5.819444,-3.63345 -8.729166,-5.63493 -2.909722,-2.00148 -5.819444,-4.1289 -8.729166,-6.3922 -2.909722,-2.2633 -5.819445,-4.66249 -8.729167,-7.20959 -2.909722,-2.5471 -5.819444,-5.24211 -8.729166,-8.09958 -2.909722,-2.85747 -5.819444,-5.87741 -8.729166,-9.0775 -2.909722,-3.2001 -5.819445,-6.58036 -8.838969,-10.31417 -3.019525,-3.73381 -6.148853,-7.82117 -9.278181,-12.1757"
       id="path308" /></clipPath><text
     xml:space="preserve"
     style="font-style:normal;font-weight:normal;font-size:28px;line-height:1.25;font-family:sans-serif;fill:#000000;fill-opacity:1;stroke:none;stroke-width:0.999999"
     x="7.5024996"
     y="173.64418"
     id="text6484-1"><tspan
       sodipodi:role="line"
       id="tspan6482-9"
       x="7.5024996"
       y="173.64418"
       style="font-style:normal;font-variant:normal;font-weight:bold;font-stretch:normal;font-family:Roboto;-inkscape-font-specification:'Roboto Bold';stroke-width:0.999999">geocountries</tspan></text><g
     id="info"
     class="info"
     transform="matrix(0.21936214,0,0,0.21936214,397.77947,124.28466)"
     style="stroke-width:4.55867" /><path
     d="M 242.48711,70 V 210 L 121.24356,280 0,210 V 70 L 121.24356,0 Z"
     stroke="none"
     fill="#c42727"
     id="path288"
     style="fill:#000002;fill-opacity:1;stroke-width:1.42857" /><path
     d="m 236.42494,73.5 v 133 L 121.24356,273 6.0621778,206.5 V 73.5 L 121.24356,7 Z"
     stroke="none"
     fill="#e63e32"
     id="path290"
     style="fill:#e8c020;fill-opacity:1;stroke-width:0.949998" /><path
     d="m 250,499 -26.02758,-1.36405 -25.74243,-4.0772 -25.17522,-6.74568 -24.33219,-9.34025 L 125.5,465.64033 103.64148,451.44523 83.386482,435.04306 64.956941,416.61352 48.554771,396.35853 34.359677,374.5 22.527183,351.27743 13.186929,326.94524 6.4412483,301.77002 2.3640485,276.02759 1,250 2.3640476,223.97242 6.4412465,198.22999 13.186926,173.05477 22.527179,148.72258 34.359672,125.5 48.554766,103.64148 64.956936,83.386482 83.386476,64.956941 103.64147,48.554771 125.5,34.359677 148.72257,22.527183 173.05476,13.186929 198.22998,6.4412483 223.97241,2.3640485 250,1 l 26.02758,1.3640476 25.74243,4.0771989 25.17522,6.7456795 24.33219,9.340253 23.22258,11.832493 21.85852,14.195094 20.255,16.40217 18.42954,18.42954 16.40217,20.254994 14.19509,21.85853 11.8325,23.22257 9.34025,24.33219 6.74568,25.17522 4.0772,25.74243 L 499,250 l -1.36405,26.02758 -4.0772,25.74243 -6.74568,25.17522 -9.34025,24.33219 -11.83249,23.22258 -14.1951,21.85852 -16.40217,20.255 -18.42954,18.42954 -20.25499,16.40217 -21.85853,14.19509 -23.22257,11.8325 -24.33219,9.34025 -25.17522,6.74568 -25.74243,4.0772 z"
     fill="#add8f7"
     fill-opacity="1"
     stroke="none"
     stroke-width="2.46389"
     id="path8636"
     transform="matrix(0.53301345,0,0,0.53301345,-12.009809,6.7466371)"
     clip-path="url(#clipPath9367-9)" /><path
     d="m 250,499 24.40627,-1.199 24.17122,-3.58547 23.7034,-5.93739 23.00729,-8.23214 22.08961,-10.44761 20.9592,-12.56246 19.62694,-14.55633 18.10566,-16.41001 16.41002,-18.10567 14.55633,-19.62694 12.56246,-20.9592 10.44761,-22.08961 8.23213,-23.00729 5.9374,-23.70339 L 497.801,274.40626 499,250 497.801,225.59373 494.21553,201.42251 488.27814,177.71911 480.046,154.71182 469.59839,132.62221 457.03593,111.66301 442.4796,92.036072 426.06959,73.930411 407.96393,57.520397 388.33699,42.964067 367.37779,30.401606 345.28818,19.953997 322.28089,11.721857 298.57749,5.7844658 274.40627,2.1990034 250,1 m 0,498 h 3e-5 m -1e-5,-498 M 250,499 h 1e-5 m 0,-498 M 250,499 h 1e-5 m 0,-498 M 250,499 h 1e-5 M 250,1 m 0,498 v 0 M 250,1 m 0,498 v 0 M 250,1 m 0,498 v 0 M 250,1 m 0,498 v 0 M 250,1 m 0,498 v 0 M 250,1 m 0,498 v 0 M 250,1 m 0,498 v 0 M 250,1 m 0,498 v 0 M 250,1 m 0,498 v 0 M 250,1 m 0,498 h -1e-5 M 250,1 m 0,498 h -1e-5 m 0,-498 M 250,499 h -1e-5 m 0,-498 M 250,499 h -3e-5 m 0,-498 m 3e-5,498 -24.40627,-1.199 -24.17122,-3.58547 -23.7034,-5.93739 L 154.71182,480.046 132.62221,469.59839 111.66301,457.03593 92.036069,442.4796 73.930408,426.06959 57.520394,407.96392 42.964064,388.33698 30.401603,367.37778 19.953995,345.28817 11.721855,322.28088 5.7844643,298.57749 2.1990026,274.40626 1,250 l 1.1990034,-24.40627 3.5854624,-24.17122 5.9373912,-23.7034 8.23214,-23.00729 10.447609,-22.08961 12.562461,-20.9592 14.55633,-19.626938 16.410014,-18.105661 18.105661,-16.410014 19.626938,-14.55633 20.9592,-12.562461 22.08961,-10.447609 23.00729,-8.23214 23.7034,-5.9373912 L 225.59373,2.1990034 250,1 m 0,498 -24.03549,-1.199 -23.804,-3.58547 -23.34329,-5.93739 L 156.15946,480.046 134.40544,469.59839 113.76466,457.03593 94.435896,442.4796 76.605301,426.06959 60.444592,407.96392 46.109405,388.33698 33.737796,367.37778 23.44891,345.28817 15.341836,322.28088 9.4946471,298.57749 5.9636566,274.40626 4.7828695,250 5.9636574,225.59373 9.4946485,201.42251 15.341838,177.71911 23.448913,154.71182 33.737799,132.62221 46.109408,111.66301 60.444595,92.036072 76.605304,73.930411 94.435899,57.520397 113.76466,42.964067 134.40544,30.401606 156.15946,19.953997 178.81722,11.721857 202.16051,5.7844658 225.96451,2.1990034 250,1 m 0,498 -22.93439,-1.199 -22.71352,-3.58547 -22.27391,-5.93739 L 160.4584,480.046 139.70096,469.59839 120.00575,457.03593 101.56246,442.4796 84.548704,426.06959 69.128335,407.96392 55.449859,388.33698 43.645007,367.37778 33.827466,345.28817 26.091786,322.28088 20.512463,298.57749 17.143231,274.40626 16.016537,250 l 1.126695,-24.40627 3.369233,-24.17122 5.579323,-23.7034 7.735681,-23.00729 9.817541,-22.08961 11.804852,-20.9592 L 69.128338,92.036072 84.548707,73.930411 101.56246,57.520397 120.00575,42.964067 139.70096,30.401606 160.4584,19.953997 182.07818,11.721857 204.35209,5.7844658 227.06561,2.1990034 250,1 m 0,498 -21.13645,-1.199 -20.93289,-3.58547 -20.52775,-5.93739 L 167.47802,480.046 148.34785,469.59839 130.19665,457.03593 113.19922,442.4796 97.519261,426.06959 83.307772,407.96392 70.70162,388.33698 59.82221,367.37778 50.774315,345.28817 43.645073,322.28088 38.503142,298.57749 35.398041,274.40626 34.359674,250 l 1.038368,-24.40627 3.105101,-24.17122 5.141932,-23.7034 7.129243,-23.00729 9.047894,-22.08961 10.879411,-20.9592 12.606151,-19.626938 14.21149,-18.105661 15.679966,-16.410014 16.99742,-14.55633 18.1512,-12.562461 19.13017,-10.447609 19.9249,-8.23214 L 207.93066,5.7844658 228.86355,2.1990034 250,1 m 0,498 -18.69629,-1.199 -18.51623,-3.58547 -18.15785,-5.93739 L 177.00502,480.046 160.0834,469.59839 144.02772,457.03593 128.99261,442.4796 115.12287,426.06959 102.55207,407.96392 91.401272,388.33698 81.777868,367.37778 73.774536,345.28817 67.468351,322.28088 62.920046,298.57749 60.173423,274.40626 59.254934,250 l 0.91849,-24.40627 2.746623,-24.17122 4.548306,-23.7034 6.306185,-23.00729 8.003333,-22.08961 9.623403,-20.9592 11.150796,-19.626938 12.5708,-18.105661 13.86974,-16.410014 15.03511,-14.55633 16.05568,-12.562461 16.92162,-10.447609 17.62461,-8.23214 L 212.78748,5.7844658 231.30371,2.1990034 250,1 m 0,498 -15.68805,-1.199 -15.53696,-3.58547 -15.23625,-5.93739 -14.7888,-8.23214 -14.19893,-10.44761 -13.47231,-12.56246 -12.61596,-14.55633 -11.63809,-16.41001 -10.54816,-18.10567 -9.35662,-19.62694 -8.075,-20.9592 -6.71559,-22.08961 L 96.837761,322.28088 93.02128,298.57749 90.716589,274.40626 89.945885,250 l 0.770705,-24.40627 2.304691,-24.17122 3.816481,-23.7034 5.291518,-23.00729 6.71559,-22.08961 8.075,-20.9592 9.35663,-19.626938 10.54815,-18.105661 11.63809,-16.410014 12.61596,-14.55633 13.47231,-12.562461 14.19893,-10.447609 14.7888,-8.23214 L 218.77499,5.7844658 234.31195,2.1990034 250,1 m 0,498 -12.20314,-1.199 -12.08561,-3.58547 -11.85169,-5.93739 -11.50365,-8.23214 -11.04481,-10.44761 -10.4796,-12.56246 -9.81347,-14.55633 -9.05283,-16.41001 -8.205,-18.10567 -7.27817,-19.62694 L 134.977,345.28817 127.89223,298.57749 125.5,250 l 2.39223,-48.57749 7.08477,-46.71069 11.50503,-43.04881 7.27817,-19.626938 8.20501,-18.105661 9.05283,-16.410014 9.81347,-14.55633 10.4796,-12.562461 11.0448,-10.447609 11.50365,-8.23214 L 225.71125,5.7844658 237.79686,2.1990034 250,1 m 0,498 -8.34744,-1.199 -8.26704,-3.58547 -8.10704,-5.93739 -7.86896,-8.23214 -7.55509,-10.44761 -7.16847,-12.56246 -12.90531,-30.96634 -10.59111,-37.73261 -7.86991,-43.04881 -4.84626,-46.71068 L 164.83698,250 l 1.63639,-48.57749 4.84626,-46.71069 7.86991,-43.04881 10.59111,-37.732599 12.90531,-30.966344 7.16847,-12.562461 7.55509,-10.447609 7.86896,-8.23214 8.10704,-5.9373912 8.26704,-3.5854624 L 250,1 m 0,498 -4.2381,-1.199 -4.19729,-3.58547 -8.11123,-14.16953 -7.47535,-23.01007 -6.55219,-30.96634 -5.37725,-37.73261 -3.99566,-43.04881 -2.46051,-46.71068 L 206.7616,250 l 0.83082,-48.57749 2.46051,-46.71069 3.99566,-43.04881 5.37725,-37.732599 6.55219,-30.966344 7.47535,-23.01007 L 241.56461,5.7844658 245.7619,2.1990034 250,1 m 0,498 V 480.046 426.06959 345.28817 250 154.71182 73.930411 19.953997 1 m 0,498 4.2381,-1.199 4.19729,-3.58547 8.11123,-14.16953 7.47535,-23.01007 6.55219,-30.96634 5.37725,-37.73261 3.99566,-43.04881 2.46051,-46.71068 L 293.2384,250 292.40758,201.42251 289.94707,154.71182 285.95141,111.66301 280.57416,73.930411 274.02197,42.964067 266.54662,19.953997 258.43539,5.7844658 254.2381,2.1990034 250,1 m 0,498 8.34744,-1.199 8.26704,-3.58547 8.10704,-5.93739 7.86896,-8.23214 7.55509,-10.44761 7.16847,-12.56246 12.90531,-30.96634 10.59111,-37.73261 7.86991,-43.04881 4.84626,-46.71068 L 335.16302,250 333.52663,201.42251 328.68037,154.71182 320.81046,111.66301 310.21935,73.930411 297.31404,42.964067 290.14557,30.401606 282.59048,19.953997 274.72152,11.721857 266.61448,5.7844658 258.34744,2.1990034 250,1 m 0,498 12.20314,-1.199 12.08561,-3.58547 11.85169,-5.93739 11.50365,-8.23214 11.04481,-10.44761 10.4796,-12.56246 9.81347,-14.55633 9.05283,-16.41001 8.205,-18.10567 7.27817,-19.62694 11.50503,-43.04881 7.08477,-46.71068 L 374.5,250 372.10777,201.42251 365.023,154.71182 353.51797,111.66301 346.2398,92.036072 338.03479,73.930411 328.98196,57.520397 319.16849,42.964067 308.68889,30.401606 297.64409,19.953997 286.14044,11.721857 274.28875,5.7844658 262.20314,2.1990034 250,1 m 0,498 15.68805,-1.199 15.53696,-3.58547 15.23625,-5.93739 14.7888,-8.23214 14.19893,-10.44761 13.47231,-12.56246 12.61596,-14.55633 11.63809,-16.41001 10.54816,-18.10567 9.35662,-19.62694 8.075,-20.9592 6.71559,-22.08961 5.29152,-23.00729 3.81648,-23.70339 2.30469,-24.17123 0.7707,-24.40626 -0.7707,-24.40627 -2.30469,-24.17122 -3.81648,-23.7034 -5.29152,-23.00729 -6.71559,-22.08961 -8.075,-20.9592 L 373.7235,92.036072 363.17535,73.930411 351.53726,57.520397 338.9213,42.964067 325.44899,30.401606 311.25006,19.953997 296.46126,11.721857 281.22501,5.7844658 265.68805,2.1990034 250,1 m 0,498 18.69629,-1.199 18.51623,-3.58547 18.15785,-5.93739 17.62461,-8.23214 16.92162,-10.44761 16.05568,-12.56246 15.03511,-14.55633 13.86974,-16.41001 12.5708,-18.10567 11.1508,-19.62694 9.6234,-20.9592 8.00333,-22.08961 6.30619,-23.00729 4.5483,-23.70339 2.74663,-24.17123 0.91849,-24.40626 -0.91849,-24.40627 -2.74663,-24.17122 -4.5483,-23.7034 -6.30619,-23.00729 -8.00333,-22.08961 -9.6234,-20.9592 L 397.44793,92.036072 384.87713,73.930411 371.00739,57.520397 355.97228,42.964067 339.9166,30.401606 322.99498,19.953997 305.37037,11.721857 287.21252,5.7844658 268.69629,2.1990034 250,1 m 0,498 21.13645,-1.199 20.93289,-3.58547 20.52775,-5.93739 19.92489,-8.23214 19.13017,-10.44761 18.1512,-12.56246 16.99743,-14.55633 15.67996,-16.41001 14.21149,-18.10567 12.60615,-19.62694 10.87941,-20.9592 9.04789,-22.08961 7.12925,-23.00729 5.14193,-23.70339 3.1051,-24.17123 1.03837,-24.40626 -1.03837,-24.40627 -3.1051,-24.17122 -5.14194,-23.7034 -7.12924,-23.00729 -9.04789,-22.08961 -10.87941,-20.9592 L 416.69223,92.036072 402.48074,73.930411 386.80077,57.520397 369.80335,42.964067 351.65215,30.401606 332.52198,19.953997 312.59708,11.721857 292.06934,5.7844658 271.13645,2.1990034 250,1 m 0,498 22.93439,-1.199 22.71352,-3.58547 22.27391,-5.93739 21.61978,-8.23214 20.75744,-10.44761 19.69521,-12.56246 18.44329,-14.55633 17.01376,-16.41001 15.42037,-18.10567 13.67847,-19.62694 11.80485,-20.9592 9.81754,-22.08961 7.73568,-23.00729 5.57933,-23.70339 3.36923,-24.17123 1.12669,-24.40626 -1.12669,-24.40627 -3.36923,-24.17122 -5.57933,-23.7034 -7.73568,-23.00729 -9.81754,-22.08961 -11.80485,-20.9592 L 430.87166,92.036072 415.45129,73.930411 398.43754,57.520397 379.99425,42.964067 360.29904,30.401606 339.5416,19.953997 317.92182,11.721857 295.64791,5.7844658 272.93439,2.1990034 250,1 m 0,498 24.03549,-1.199 23.804,-3.58547 23.34329,-5.93739 22.65776,-8.23214 21.75402,-10.44761 20.64078,-12.56246 19.32876,-14.55633 17.8306,-16.41001 16.16071,-18.10567 14.33518,-19.62694 12.37161,-20.9592 10.28889,-22.08961 8.10707,-23.00729 5.84719,-23.70339 3.53099,-24.17123 1.18079,-24.40626 -1.18079,-24.40627 -3.53099,-24.17122 -5.84719,-23.7034 -8.10707,-23.00729 L 466.2622,132.62221 453.89059,111.66301 439.5554,92.036072 423.3947,73.930411 405.5641,57.520397 386.23534,42.964067 365.59456,30.401606 343.84054,19.953997 321.18278,11.721857 297.83949,5.7844658 274.03549,2.1990034 250,1 m 43.2384,494.21713 v 0 m -86.4768,0 h 0.0412 0.12338 0.20537 0.28698 0.36804 0.44839 0.52789 0.60639 0.68373 0.75977 0.83437 0.90738 0.97866 1.04807 1.11549 1.1808 1.24384 1.30453 1.36272 1.41833 1.47124 1.52134 1.56856 1.61277 1.65393 1.69193 1.72672 1.75822 1.78636 1.81112 1.83242 1.85023 1.86453 1.87527 1.88244 1.88603 1.88603 1.88244 1.87527 1.86453 1.85023 1.83242 1.81112 1.78636 1.75822 1.72672 1.69193 1.65393 1.61277 1.56856 1.52134 1.47124 1.41833 1.36272 1.30453 1.24384 1.1808 1.11549 1.04807 0.97866 0.90738 0.83437 0.75977 0.68373 0.60639 0.52789 0.44839 0.36804 0.28698 0.20537 0.12338 0.0412 m 41.92462,-11.23367 v 0 m -170.32604,0 h 0.0811 0.24302 0.40451 0.56523 0.72489 0.88315 1.03975 1.19435 1.34669 1.49647 1.64338 1.78718 1.92758 2.0643 2.1971 2.32571 2.44989 2.56941 2.68405 2.79357 2.89777 2.99646 3.08945 3.17654 3.25761 3.33245 3.40097 3.46301 3.51846 3.5672 3.60916 3.64425 3.6724 3.69355 3.70769 3.71476 3.71476 3.70769 3.69355 3.6724 3.64425 3.60916 3.5672 3.51846 3.46301 3.40097 3.33245 3.25761 3.17654 3.08945 2.99646 2.89777 2.79357 2.68405 2.56941 2.44989 2.32571 2.1971 2.0643 1.92758 1.78718 1.64338 1.49647 1.34669 1.19435 1.03975 0.88315 0.72489 0.56523 0.40451 0.24302 0.0811 M 374.5,465.64033 v 0 m -249,0 h 0.1185 0.35526 0.59135 0.82632 1.05972 1.29108 1.52001 1.74603 1.96873 2.18768 2.40247 2.61269 2.81792 3.01781 3.21194 3.39996 3.5815 3.75624 3.92381 4.08392 4.23626 4.38053 4.51647 4.6438 4.7623 4.87173 4.97188 5.06258 5.14364 5.2149 5.27624 5.32753 5.36869 5.39962 5.42028 5.43061 5.43061 5.42028 5.39962 5.36869 5.32753 5.27624 5.2149 5.14364 5.06258 4.97188 4.87173 4.7623 4.6438 4.51647 4.38053 4.23626 4.08392 3.92381 3.75624 3.5815 3.39996 3.21194 3.01781 2.81792 2.61269 2.40247 2.18768 1.96873 1.74603 1.52001 1.29108 1.05972 0.82632 0.59135 0.35526 0.1185 m 35.55411,-24.89526 v 0 m -320.108225,0 h 0.152336 0.456718 0.760231 1.062297 1.36234 1.65979 1.954081 2.244651 2.530951 2.81243 3.08856 3.3588 3.62266 3.87961 4.12919 4.3709 4.6043 4.82892 5.04436 5.25019 5.44603 5.6315 5.80626 5.96995 6.12229 6.26298 6.39173 6.50833 6.61253 6.70415 6.783 6.84894 6.90186 6.94161 6.96818 6.98146 6.98146 6.96818 6.94161 6.90186 6.84894 6.783 6.70415 6.61253 6.50833 6.39173 6.26298 6.12229 5.96995 5.80626 5.6315 5.44603 5.25019 5.04436 4.82892 4.6043 4.3709 4.12919 3.87961 3.62266 3.3588 3.08856 2.81243 2.53095 2.24465 1.95408 1.65979 1.36234 1.0623 0.76023 0.45672 0.15233 m 30.69096,-30.69096 v 0 m -381.490136,0 h 0.181547 0.544295 0.906008 1.265996 1.623573 1.978061 2.328783 2.675072 3.016268 3.351724 3.680799 4.002867 4.317316 4.623546 4.920975 5.209036 5.48719 5.75488 6.01163 6.25693 6.49033 6.71136 6.91963 7.11472 7.29626 7.46392 7.61737 7.75633 7.8805 7.98969 8.08367 8.16226 8.2253 8.2727 8.30435 8.32018 8.32018 8.30435 8.2727 8.2253 8.16226 8.08367 7.98969 7.8805 7.75633 7.61737 7.46392 7.29626 7.11472 6.91963 6.71136 6.49033 6.25693 6.01163 5.75488 5.48719 5.20904 4.92097 4.62355 4.31731 4.00287 3.6808 3.35172 3.01627 2.67507 2.32879 1.97806 1.62357 1.266 0.906 0.5443 0.18155 M 465.64033,374.5 v 0 m -431.280656,0 h 0.205242 0.615335 1.024256 1.431229 1.835475 2.236229 2.632726 3.024211 3.40994 3.789177 4.161201 4.525305 4.880794 5.226993 5.56324 5.8889 6.203348 6.505989 6.796246 7.07356 7.33742 7.5873 7.82275 8.0433 8.24854 8.43808 8.61156 8.76864 8.90904 9.03248 9.13871 9.22756 9.29884 9.35242 9.38819 9.4061 9.4061 9.38819 9.35242 9.29884 9.22756 9.13871 9.03248 8.90904 8.76864 8.61156 8.43808 8.24854 8.0433 7.82275 7.5873 7.33742 7.07356 6.79625 6.50598 6.20335 5.8889 5.56324 5.227 4.88079 4.5253 4.16121 3.78917 3.40994 3.02421 2.63273 2.23623 1.83547 1.43123 1.02426 0.61533 0.20525 m 18.34313,-39.33698 v 0 m -467.966923,0 h 0.222701 0.667677 1.111383 1.552974 1.991608 2.426451 2.856675 3.281461 3.700001 4.111498 4.515168 4.910243 5.295972 5.671619 6.03647 6.389831 6.731027 7.059411 7.374357 7.675265 7.961561 8.23271 8.48818 8.72749 8.95019 9.15586 9.34409 9.51453 9.66688 9.8008 9.91609 10.01249 10.08983 H 229.607 239.79378 250 h 10.20622 10.18678 10.14797 10.08983 10.01249 9.91609 9.8008 9.66688 9.51453 9.34409 9.15586 8.95019 8.72749 8.48818 8.23271 7.96156 7.67527 7.37435 7.05941 6.73103 6.38983 6.03647 5.67162 5.29597 4.91025 4.51516 4.1115 3.7 3.28146 2.85668 2.42645 1.99161 1.55297 1.11138 0.66768 0.2227 m 11.23367,-41.92462 v 0 m -490.4342605,0 h 0.2333924 0.6997328 1.1647413 1.6275327 2.0872263 2.542946 2.993825 3.439006 3.87764 4.308893 4.731944 5.145987 5.550234 5.943916 6.326284 6.69661 7.054187 7.398337 7.728404 8.043759 8.343803 8.62796 8.8957 9.1465 9.3799 9.59543 9.79271 9.97133 10.13099 10.27135 10.39216 10.49319 10.57425 10.63518 10.67586 H 250 h 10.69622 10.67586 10.63518 10.57425 10.49319 10.39216 10.27135 10.13099 9.97133 9.79271 9.59543 9.3799 9.1465 8.8957 8.62796 8.3438 8.04376 7.72841 7.39833 7.05419 6.69661 6.32628 5.94392 5.55023 5.14599 4.73194 4.3089 3.87764 3.439 2.99383 2.54295 2.08722 1.62753 1.16475 0.69973 0.23339 M 499,250 v 0 M 1,250 h 0.2369928 0.7105274 1.1827093 1.65264 2.1194247 2.5821751 3.0400097 3.492058 3.937459 4.375365 4.804942 5.225371 5.635856 6.035611 6.423877 6.799916 7.163009 7.512468 7.847627 8.167847 8.472519 8.761066 9.03293 9.2876 9.5246 9.74345 9.94378 10.12515 10.28728 10.4298 10.55248 10.65506 10.73738 10.79924 10.84055 H 250 h 10.86123 10.84055 10.79924 10.73738 10.65506 10.55248 10.4298 10.28728 10.12515 9.94378 9.74345 9.5246 9.2876 9.03293 8.76107 8.47251 8.16785 7.84763 7.51247 7.16301 6.79991 6.42388 6.03561 5.63586 5.22537 4.80494 4.37536 3.93746 3.49206 3.04001 2.58218 2.11942 1.65264 1.18271 0.71053 H 499 m -3.78287,-43.2384 v 0 m -490.4342605,0 h 0.2333924 0.6997328 1.1647413 1.6275327 2.0872263 2.542946 2.993825 3.439006 3.87764 4.308893 4.731944 5.145987 5.550234 5.943916 6.326284 6.69661 7.054187 7.398337 7.728404 8.043759 8.343803 8.62796 8.8957 9.1465 9.3799 9.59543 9.79271 9.97133 10.13099 10.27135 10.39216 10.49319 10.57425 10.63518 10.67586 H 250 h 10.69622 10.67586 10.63518 10.57425 10.49319 10.39216 10.27135 10.13099 9.97133 9.79271 9.59543 9.3799 9.1465 8.8957 8.62796 8.3438 8.04376 7.72841 7.39833 7.05419 6.69661 6.32628 5.94392 5.55023 5.14599 4.73194 4.3089 3.87764 3.439 2.99383 2.54295 2.08722 1.62753 1.16475 0.69973 0.23339 m -11.23367,-41.92462 v 0 m -467.966923,0 h 0.222701 0.667677 1.111383 1.552974 1.991608 2.426451 2.856675 3.281461 3.700001 4.111498 4.515168 4.910243 5.295972 5.671619 6.03647 6.389831 6.731027 7.059411 7.374357 7.675265 7.961561 8.23271 8.48818 8.72749 8.95019 9.15586 9.34409 9.51453 9.66688 9.8008 9.91609 10.01249 10.08983 H 229.607 239.79378 250 h 10.20622 10.18678 10.14797 10.08983 10.01249 9.91609 9.8008 9.66688 9.51453 9.34409 9.15586 8.95019 8.72749 8.48818 8.23271 7.96156 7.67527 7.37435 7.05941 6.73103 6.38983 6.03647 5.67162 5.29597 4.91025 4.51516 4.1115 3.7 3.28146 2.85668 2.42645 1.99161 1.55297 1.11138 0.66768 0.2227 M 465.64033,125.5 v 0 m -431.280656,0 h 0.205242 0.615335 1.024256 1.431229 1.835475 2.236229 2.632726 3.024211 3.40994 3.789177 4.161201 4.525305 4.880794 5.226993 5.56324 5.8889 6.203348 6.505989 6.796246 7.07356 7.33742 7.5873 7.82275 8.0433 8.24854 8.43808 8.61156 8.76864 8.90904 9.03248 9.13871 9.22756 9.29884 9.35242 9.38819 9.4061 9.4061 9.38819 9.35242 9.29884 9.22756 9.13871 9.03248 8.90904 8.76864 8.61156 8.43808 8.24854 8.0433 7.82275 7.5873 7.33742 7.07356 6.79625 6.50598 6.20335 5.8889 5.56324 5.227 4.88079 4.5253 4.16121 3.78917 3.40994 3.02421 2.63273 2.23623 1.83547 1.43123 1.02426 0.61533 0.20525 M 440.74507,89.945885 v 0 m -381.490136,0 h 0.181547 0.544295 0.906008 1.265996 1.623573 1.978061 2.328783 2.675072 3.016268 3.351724 3.680799 4.002867 4.317316 4.623546 4.920975 5.209036 5.48719 5.75488 6.01163 6.25693 6.49033 6.71136 6.91963 7.11472 7.29626 7.46392 7.61737 7.75633 7.8805 7.98969 8.08367 8.16226 8.2253 8.2727 8.30435 8.32018 8.32018 8.30435 8.2727 8.2253 8.16226 8.08367 7.98969 7.8805 7.75633 7.61737 7.46392 7.29626 7.11472 6.91963 6.71136 6.49033 6.25693 6.01163 5.75488 5.48719 5.20904 4.92097 4.62355 4.31731 4.00287 3.6808 3.35172 3.01627 2.67507 2.32879 1.97806 1.62357 1.266 0.906 0.5443 0.18155 M 410.05411,59.254934 v 0 m -320.108225,0 h 0.152336 0.456718 0.760231 1.062297 1.36234 1.65979 1.954081 2.244651 2.530951 2.81243 3.08856 3.3588 3.62266 3.87961 4.12919 4.3709 4.6043 4.82892 5.04436 5.25019 5.44603 5.6315 5.80626 5.96995 6.12229 6.26298 6.39173 6.50833 6.61253 6.70415 6.783 6.84894 6.90186 6.94161 6.96818 6.98146 6.98146 6.96818 6.94161 6.90186 6.84894 6.783 6.70415 6.61253 6.50833 6.39173 6.26298 6.12229 5.96995 5.80626 5.6315 5.44603 5.25019 5.04436 4.82892 4.6043 4.3709 4.12919 3.87961 3.62266 3.3588 3.08856 2.81243 2.53095 2.24465 1.95408 1.65979 1.36234 1.0623 0.76023 0.45672 0.15233 M 374.5,34.359674 v 0 m -249,0 h 0.1185 0.35526 0.59135 0.82632 1.05972 1.29108 1.52001 1.74603 1.96873 2.18768 2.40247 2.61269 2.81792 3.01781 3.21194 3.39996 3.5815 3.75624 3.92381 4.08392 4.23626 4.38053 4.51647 4.6438 4.7623 4.87173 4.97188 5.06258 5.14364 5.2149 5.27624 5.32753 5.36869 5.39962 5.42028 5.43061 5.43061 5.42028 5.39962 5.36869 5.32753 5.27624 5.2149 5.14364 5.06258 4.97188 4.87173 4.7623 4.6438 4.51647 4.38053 4.23626 4.08392 3.92381 3.75624 3.5815 3.39996 3.21194 3.01781 2.81792 2.61269 2.40247 2.18768 1.96873 1.74603 1.52001 1.29108 1.05972 0.82632 0.59135 0.35526 0.1185 M 335.16302,16.016537 v 0 m -170.32604,0 h 0.0811 0.24302 0.40451 0.56523 0.72489 0.88315 1.03975 1.19435 1.34669 1.49647 1.64338 1.78718 1.92758 2.0643 2.1971 2.32571 2.44989 2.56941 2.68405 2.79357 2.89777 2.99646 3.08945 3.17654 3.25761 3.33245 3.40097 3.46301 3.51846 3.5672 3.60916 3.64425 3.6724 3.69355 3.70769 3.71476 3.71476 3.70769 3.69355 3.6724 3.64425 3.60916 3.5672 3.51846 3.46301 3.40097 3.33245 3.25761 3.17654 3.08945 2.99646 2.89777 2.79357 2.68405 2.56941 2.44989 2.32571 2.1971 2.0643 1.92758 1.78718 1.64338 1.49647 1.34669 1.19435 1.03975 0.88315 0.72489 0.56523 0.40451 0.24302 0.0811 M 293.2384,4.7828695 v 0 m -86.4768,0 h 0.0412 0.12338 0.20537 0.28698 0.36804 0.44839 0.52789 0.60639 0.68373 0.75977 0.83437 0.90738 0.97866 1.04807 1.11549 1.1808 1.24384 1.30453 1.36272 1.41833 1.47124 1.52134 1.56856 1.61277 1.65393 1.69193 1.72672 1.75822 1.78636 1.81112 1.83242 1.85023 1.86453 1.87527 1.88244 1.88603 1.88603 1.88244 1.87527 1.86453 1.85023 1.83242 1.81112 1.78636 1.75822 1.72672 1.69193 1.65393 1.61277 1.56856 1.52134 1.47124 1.41833 1.36272 1.30453 1.24384 1.1808 1.11549 1.04807 0.97866 0.90738 0.83437 0.75977 0.68373 0.60639 0.52789 0.44839 0.36804 0.28698 0.20537 0.12338 0.0412"
     style="fill:#e8c020;fill-opacity:1;stroke:#ffffff;stroke-width:1.5009;stroke-linecap:round;stroke-linejoin:round;stroke-dasharray:3.75226;stroke-opacity:0.5"
     id="path8640"
     transform="matrix(0.53301345,0,0,0.53301345,-12.009809,6.7466371)"
     clip-path="url(#clipPath9361-6)" /><path
     d="m 133.11646,38.831306 3.33864,-2.256528 -1.12111,0.448942 -2.07794,1.48349 z m -32.64941,12.51013 -0.738247,0.576156 0.370957,-0.238465 0.80093,-0.604523 z m 269.04644,20.936241 -2.19081,0.949344 2.26935,2.159843 z m -218.3084,10.619254 -0.67546,-0.09398 -1.24373,0.821107 0.45776,0.689013 0.58284,0.428245 0.95124,-0.603533 z m 10.68001,-8.498118 0.48215,-1.590851 2.05095,-1.433038 0.37172,-0.768228 -0.54194,-0.228021 -1.8564,1.367625 -1.5678,0.08932 -1.70537,0.429329 0.27843,0.219418 0.75083,0.586645 0.55979,0.431864 -1.29022,1.231269 -0.27126,1.449761 1.40327,0.142925 z M 51.332832,308.1859 l -1.445048,-5.61686 0.204089,-2.61322 -0.225812,-0.6589 -0.07203,-0.0973 -0.460225,-0.54266 -0.07692,-0.14529 -2.038276,-6.52162 -0.297073,-0.43667 -0.293287,-0.36134 -0.03316,-0.0515 -0.274171,0.89027 1.316304,3.09239 0.97009,5.3382 -0.313164,2.10767 1.663594,5.11847 0.781974,0.75303 z m -18.308317,-43.7031 0.250683,7.53351 1.487044,7.06734 1.776626,2.87316 1.273255,3.65143 1.51662,1.57883 -1.852437,-4.65185 -0.301154,-2.37826 -2.062214,-2.95703 0.279528,-1.52772 -1.127441,-6.34997 z m 10.536546,-15.55152 -1.742347,-0.61016 -3.166556,2.26173 -0.282576,3.77398 -0.290206,4.5023 0.592432,2.85798 3.2262,-0.77699 1.886682,-6.36655 0.404591,-3.42401 z M 121.71452,95.2182 l -0.75673,2.775239 2.29333,0.756596 1.41057,2.312395 1.98903,0.53791 6.22807,-0.83067 0.52214,-1.80856 2.63795,-5.329864 0.59748,-3.517279 -2.03306,-0.346505 2.0306,-3.353482 1.53988,1.458527 3.46661,-1.608649 -0.54061,-3.131855 -1.36729,0.08707 -1.76585,0.75723 -1.32612,2.215488 0.10867,-1.99268 2.44648,-3.159151 -1.7814,-0.332248 -0.55854,-5.714985 3.9309,-2.08138 2.94266,-0.207974 3.98206,-3.972439 -3.84966,-1.195982 -6.15056,2.362544 -4.80867,1.716219 -4.81359,4.026739 0.75327,0.728111 -1.91936,3.747684 0.35785,3.770516 0.50584,4.83385 -1.66805,0.964296 z m -73.019387,8.23027 1.14389,-1.51352 1.062375,-1.12168 0.659801,-0.30196 -0.497124,0.85101 1.940048,-1.502156 0.216532,0.497926 1.819316,-1.441624 -0.04188,1.233254 -2.602675,3.28209 -1.922453,2.90081 -2.905112,3.2574 -1.359815,2.2435 -0.419635,1.89152 -0.172262,1.2703 0.97914,-0.26126 0.495123,1.88249 -1.616015,4.11401 1.004968,0.70243 0.247321,3.06653 1.369365,-0.91752 1.985464,-2.63313 0.780681,-1.85684 2.639605,-3.09161 2.193267,-1.36299 1.434073,1.03853 -0.680222,1.18377 2.076111,1.3086 -0.381559,1.15016 3.003178,1.06795 1.892325,2.01389 3.789191,-2.53486 3.010349,-0.0565 0.49286,1.20268 1.023676,0.57421 2.702302,-0.99908 1.090938,-0.99685 4.181905,-5.52932 4.889276,-5.63196 2.454827,-4.49784 2.330078,-3.52695 -2.172195,1.33028 -1.109645,-0.77839 -3.039427,2.18266 -1.945794,0.40757 -0.339408,-1.80857 -1.656628,-1.21138 -1.941539,2.24449 -1.555312,0.43759 0.158293,-2.19541 -2.308343,0.32579 1.170607,-1.24441 -1.1193,0.18117 1.680455,-2.812619 -0.214253,-1.178417 0.666338,-1.53429 1.790906,-1.36778 0.287517,-1.680131 3.301479,-3.095609 3.821398,-0.100971 2.129848,-2.652171 2.925811,0.486557 5.894129,-3.014777 4.166559,0.914943 -0.201594,1.614208 3.007762,1.056651 3.77411,-0.01617 4.2266,-1.933362 2.41232,-3.633162 -1.45924,-2.378163 -0.2491,-2.38282 -2.38591,-2.926123 0.87003,-0.775816 1.92783,0.113019 3.37437,-4.123113 3.64497,-0.987722 -1.70175,-0.280222 -5.28428,1.33833 -3.13935,1.457754 -1.11872,2.410023 1.68004,-0.02583 -1.09086,0.887393 -5.48794,2.181763 1.3554,-3.831727 2.29282,-0.907932 -2.32478,-2.101027 -5.324626,3.224879 -0.81831,1.047433 -3.901795,2.737548 -1.650943,1.834842 -4.777849,4.069957 -0.673371,1.564528 -0.640737,1.892838 0.48523,0.54045 -0.552677,0.708243 -2.543628,0.06007 -2.022738,1.273916 -1.397903,0.645364 0.592037,-1.095215 -0.737245,-0.879319 -2.67501,1.027848 -0.813148,1.110643 -0.838656,0.438174 0.05949,-0.917773 -1.481141,1.484941 -1.223071,2.92801 -1.752861,1.333774 0.228102,1.952079 -3.299023,2.961781 -1.429381,2.551942 -0.669426,0.63208 0.01122,-2.05042 -1.075667,1.02374 1.767484,-3.840494 2.517448,-1.95965 -1.310046,0.363581 2.185773,-4.693198 1.739391,-3.157609 3.3258,-3.947068 0.647062,-1.817529 0.49248,-1.516956 0.07426,-0.162786 0.592369,-2.322443 1.022032,-1.838619 2.300818,-2.870741 0.02024,-0.253889 -1.482445,1.400338 -0.01353,-0.128705 1.651414,-1.917869 0.397643,-0.317686 -1.364958,0.478053 -3.575973,3.653054 -1.232934,2.252946 -2.338401,2.960639 -1.030111,2.137215 0.811855,-0.0317 -1.439047,1.675569 0.10461,1.207284 -0.267717,1.802523 -1.198407,1.236316 -0.09897,-1.071736 -2.67577,2.719413 -0.131304,0.988748 -4.532208,4.788156 -0.413283,-0.03913 2.154194,-2.723411 2.992448,-4.44853 1.654009,-3.887271 -0.581555,0.08124 2.00877,-3.806416 4.144179,-5.112214 0.51393,-1.268314 -2.430053,1.971352 -0.172095,0.153347 -0.353987,0.278995 -2.295196,1.92689 0.929964,-1.542813 -1.428887,1.347645 -1.976688,2.15288 -1.348209,1.50017 -2.168482,2.244656 -0.764776,0.768614 -3.245606,3.77135 1.6e-4,-1.91e-4 17.741512,-19.092791 11.240898,-10.246642 2.774983,-2.294736 2.185762,-1.798137 0.830218,-0.598522 1.406153,-1.033044 0.01887,0.04087 0.01181,0.0069 0.279693,-0.284545 2.862507,-2.092927 2.224116,-1.664181 2.22355,-1.283099 -0.60025,0.559307 1.47013,-1.090639 0.0595,0.308885 1.37083,-0.889223 3.36991,-2.539812 5.68842,-4.051362 2.14376,-1.251926 0.96695,-0.428598 2.15743,-1.147003 -3.16854,2.037644 -1.33845,1.037496 -4.0319,2.33235 -2.41348,1.686285 -1.80805,1.846831 2.1028,-0.999737 -0.0615,0.807857 2.98947,-1.189895 2.19971,-0.534939 -0.0368,0.628328 2.24136,-1.288353 1.62439,-0.490342 2.60114,-1.891257 5.58138,-3.526893 1.47196,-0.475188 -0.95243,1.035931 0.53757,0.0847 2.36537,-1.371744 1.04501,-1.188025 2.74296,-1.860153 3.6169,-1.002518 1.6664,0.405141 2.99201,-1.120898 0.76813,-0.858911 -0.41142,-0.346774 -6.38398,1.360419 1.00255,-1.560946 7.77286,-4.548182 5.33103,-2.02935 7.18257,-2.94167 0.32544,-0.606606 -2.66286,0.514315 -6.78402,3.076064 -2.52806,0.808043 -5.66201,2.46194 -4.68477,2.534152 -3.08405,2.592232 -2.73121,1.42411 -2.99327,1.197106 -4.07541,2.611894 -5.39316,3.298455 -0.53148,-0.147878 -2.36889,1.522334 -1.25681,0.439328 9.60909,-7.116266 2.46465,-1.473636 0.5274,-0.571147 -4.36066,2.233049 -1.09082,0.313102 2.08499,-1.442626 2.11345,-1.168961 0.63495,-0.517678 2.53625,-1.417417 2.2546,-1.37003 5.366,-2.874809 2.02452,-0.829314 1.21886,-0.622466 4.41439,-1.928305 5.24365,-2.283931 1.77011,-0.624225 5.55149,-2.380349 2.88725,-1.05273 4.33114,-1.616576 3.51392,-1.061331 4.39088,-1.503661 3.75932,-0.572031 3.24329,-0.827437 2.25607,-0.160297 -0.88795,1.292227 -1.85593,0.709551 0.60221,0.725434 1.55782,0.232284 0.34394,2.362049 -2.9621,1.602412 -3.04111,1.105759 -2.30886,0.03613 -2.43586,-1.115937 -1.04357,1.067726 -4.78379,2.828708 0.46773,1.396754 1.60021,-0.413951 0.88447,-1.65191 1.43065,-0.469236 2.12,1.166081 1.63733,-1.581897 6.27441,-2.000551 0.4839,1.133803 3.28245,-2.236064 2.51034,-1.245138 1.12751,-1.103502 2.44397,0.266339 -0.76405,0.972777 -2.41435,0.585808 -1.29093,1.016218 2.63433,-0.193841 1.63012,-0.938868 10.45926,-2.187685 0.10164,1.164869 7.13918,-1.297426 4.22701,-1.291984 3.92394,0.450807 3.91047,1.899136 2.05764,-0.864094 -1.6293,-1.250932 2.33492,-2.329689 2.81401,-0.738947 1.935,-1.150947 4.24467,-1.024102 0.45719,1.018898 -1.71716,1.223947 -0.45771,0.936435 -2.00957,2.932474 -0.69511,1.51456 -4.403,2.334455 -4.10965,0.252957 1.11062,1.061676 3.09038,-0.387172 5.33998,-2.329874 2.72692,-2.110992 1.95964,0.424864 1.86834,-0.388314 -1.52403,-0.940089 -3.08961,0.0127 1.3017,-1.536602 1.82232,-2.385609 1.2457,0.366351 -0.29998,0.904621 1.33878,0.115325 1.06269,-0.923213 1.68305,-0.224207 1.72231,-0.431559 2.63486,0.918698 2.51924,0.121718 -3.34686,-1.249633 0.84465,-1.299786 7.34566,-0.402215 -0.81332,-0.429397 3.84906,-1.4055532 6.94259,-0.6764878 1.12084,0.2616931 4.25164,-1.3454994 2.25963,0.082045 3.86511,0.3911481 2.9833,-0.00949 3.14743,0.6094303 1.33589,1.2512798 -4.7898,2.1421801 4.6723,-0.608891 3.22415,0.21501 5.3397,-0.09615 0.76613,0.471016 3.30291,0.292416 1.63225,-1.028899 4.38653,0.410759 2.57289,0.553475 1.6502,1.364506 2.71614,0.871596 2.28318,0.540031 -0.47704,-1.275784 2.36913,0.611388 1.70356,-0.272972 3.19954,0.56732 0.8395,-0.279497 -3.48034,-1.442375 0.76955,-0.358867 5.51401,0.546811 3.7471,0.873285 5.14157,1.146567 2.82561,-0.236646 2.31616,0.536565 2.99306,1.144017 2.47051,0.802413 -0.31857,-0.480743 1.69905,-0.14853 3.56772,1.202946 0.13319,-0.05735 -4.28441,-1.653867 1.93528,0.386673 3.87773,1.358658 7.60171,3.067576 7.94838,3.525488 2.8047,1.347589 2.43965,1.169084 4.01844,2.023827 1.29235,0.680654 0.18225,0.200455 1.24346,0.860805 3.0259,2.027868 2.52415,1.585461 0.43678,0.356043 -2.67371,-1.296869 -0.18645,1.039505 0.6616,1.019609 1.97886,1.351734 2.51602,2.086663 2.24953,0.874025 2.93247,2.224674 2.42548,1.39793 -0.70042,0.124903 4.3684,3.1494 0.54086,1.700893 2.64817,2.362383 0.24555,0.934064 3.44481,3.608355 0.95916,1.789942 -7.0751,-5.492791 -8.12806,-5.983568 -4.37359,-3.596423 -2.17181,-2.440021 -0.77112,-1.402433 -1.86059,-1.634994 -5.12512,-4.757976 -4.58667,-2.705352 -0.17667,0.302162 2.59523,1.720736 2.43882,2.307346 -4.77236,-2.859345 -1.14896,0.253775 3.17683,3.277216 3.50165,2.383019 -0.58288,0.7386 -2.42349,-0.851821 -3.8198,-1.343854 0.11532,1.329126 -4.59486,-1.061543 -2.93307,0.793832 -0.26982,2.181997 0.57472,3.263986 0.5826,2.063649 -0.82273,3.008512 3.66992,0.759479 1.66538,1.99018 2.20375,-1.294401 3.35119,0.185175 4.31001,2.74555 3.16822,3.259313 1.98584,3.80215 1.63992,1.350123 3.18565,4.562803 -0.0619,1.91917 1.45178,4.622629 -0.48319,5.581537 0.28053,2.794212 -2.81738,2.601891 -4.32078,-1.545511 -0.76695,2.805885 -1.20028,2.411272 1.4769,2.33765 -3.77896,3.605276 0.79387,1.949572 3.34362,1.831975 4.82829,4.599185 2.5808,4.181109 0.14153,3.66429 -2.66509,1.46159 -2.9743,1.20291 -2.19167,-2.98881 0.18037,-2.88361 -2.42693,-2.92578 0.86691,-1.176955 -1.63199,-2.414608 -5.98742,-0.985201 0.26501,-4.052994 -4.19866,-2.633579 -3.37916,1.749584 -1.83103,2.370926 -1.82502,0.481565 0.88388,-2.17309 -1.81871,-0.527346 1.61954,-3.240846 -3.7808,-1.383414 -1.04453,2.403075 -2.1705,1.010287 -0.57153,2.349546 -3.63239,0.253827 -0.0167,1.668563 2.23846,1.64405 2.25168,-0.04728 1.51871,2.997401 1.62161,0.554253 2.92414,-2.460468 2.48149,1.136673 2.2011,-0.125975 1.61912,0.449309 -3.74832,2.847107 -2.89612,3.53154 -0.3465,3.07618 3.80749,1.45518 5.76748,5.51483 3.0425,5.15748 -4.78021,0.70692 5.46971,1.05382 -3.39011,2.40594 2.16616,-0.19993 2.51234,1.8875 -0.85436,2.06191 1.13329,2.79104 -1.01914,1.59503 -1.88292,4.62416 -0.92096,1.5859 0.2649,4.13015 -1.16078,0.94995 -1.41617,2.56663 -4.52947,3.97174 -1.73723,2.50802 -6.0819,0.49445 -1.84381,1.04271 0.87853,0.56715 -0.13495,0.85756 -0.87984,0.32804 -0.85832,-0.33704 -0.0209,-0.66356 0.4935,-0.64599 -2.92961,-1.44463 1.30613,2.61593 0.2205,0.25867 0.41848,0.49059 -0.52079,0.21307 -2.07733,0.84696 -4.18598,1.17239 -4.56714,1.32035 0.30682,2.8196 -2.24875,0.93618 -1.30455,-4.97682 -4.62851,-0.90733 -2.075,0.86027 -4.4384,1.91296 -0.49755,3.17814 -2.03487,0.95009 -1.22377,4.09891 3.58323,3.60514 1.0394,2.70252 9.26814,8.68496 3.09876,5.39636 0.51666,5.02606 -0.49632,2.56237 -0.82751,4.05452 -3.03273,2.74827 -3.799,1.42323 -1.55929,0.11982 -1.48308,3.43873 -6.98437,4.10413 0.35842,-5.40634 -1.93704,-2.43236 -3.44625,-0.34727 0.10237,-2.40242 -2.37813,0.55322 -0.89189,-3.034 -4.69666,-4.36258 -4.1338,-0.14888 0.38153,-3.2317 -3.8299,0.29015 0.12441,5.12796 -3.32609,8.80135 0.50704,3.8377 2.52412,-0.26668 1.88098,4.19831 0.64271,3.3536 2.58574,2.93742 2.40886,0.10551 2.20016,2.48132 4.50257,3.7881 1.43495,2.53777 0.0662,7.94849 3.68666,6.58023 -3.9143,-0.39915 -8.87417,-5.69435 -2.4584,-4.41814 -1.72819,-9.28504 -0.97914,-1.85599 -6.4341,-8.34868 -1.95338,-0.66519 2.13225,-7.78554 -0.092,-6.01984 -0.99702,-6.04568 -1.82223,-2.12822 -1.70201,-5.01186 -0.85076,-6.94251 -3.21957,-3.47286 -0.32997,2.65045 -5.54968,4.18813 -5.09873,-1.17533 1.51303,-6.36903 -2.03369,-5.26612 -2.73214,-2.02447 0.95585,-2.46708 -4.1615,-1.39836 -1.94694,-3.2609 -2.69438,-5.96549 -2.65786,-0.14559 -1.22783,-1.12478 -0.13768,2.1729 -6.0161,2.89703 -3.52525,0.15294 -0.80773,-1.24419 -4.92759,2.79662 0.59687,2.04584 -3.02274,3.09942 -3.83752,1.37096 -5.32384,5.35909 -7.50477,5.14009 -0.0426,1.87445 -4.41348,1.08219 -1.11803,1.97676 -3.06897,0.72023 -0.99141,2.76769 0.91591,7.01544 -2.24738,5.62618 -0.3016,7.41801 -2.51668,1.18875 -1.38556,3.12546 -3.05814,1.32712 -0.88953,2.43048 -2.29328,1.39276 -3.9497,-3.70969 -3.66105,-11.77629 -2.65144,-4.96018 -1.74716,-7.7652 -2.84634,-5.72907 -1.67639,-15.59585 1.19028,-2.73486 -0.52979,-6.65594 -1.67478,0.69746 -0.47217,3.1457 -4.56392,2.00854 -3.31164,-1.7823 -3.56346,-4.62596 4.79907,-1.07212 -5.45712,-2.52092 -1.21328,-2.59239 -2.05683,0.15368 -1.147,-3.40593 -2.6829,-3.18846 -10.00395,1.09674 -6.66523,-0.0331 -5.65967,-0.50215 -8.19039,-1.75313 0.13533,-4.18365 -1.79341,-1.35738 -5.74246,2.72719 -3.18429,-0.81728 -2.87685,-3.62659 -2.72281,-1.32522 -0.89288,-8.3705 -2.91762,-0.77042 -1.81278,1.65198 -1.5898,-0.12316 -0.68902,5.51049 0.0142,3.55827 2.2856,3.07453 -0.91141,4.22263 0.84716,3.87862 0.86218,-3.24348 2.89131,-3.09968 1.95801,0.91495 -1.77451,4.1752 -2.82458,1.73001 0.67995,1.4626 0.9608,0.9331 6.98508,-0.49131 7.52229,-6.85004 0.86751,-0.8745 0.91946,0.186 -0.78189,1.69329 -0.32764,2.55077 1.53106,4.05313 5.10329,1.75622 2.32939,5.26222 -5.86723,7.21164 -1.31108,-0.6445 -2.05166,3.34825 -0.0789,3.02974 -3.35879,0.84295 -2.62114,3.59834 -3.15354,0.40035 -2.04064,3.44097 -3.41508,0.10721 -3.37872,1.42664 -2.92654,1.57789 -0.68587,2.7066 -9.256167,3.68602 -3.344375,2.92006 -2.084074,-0.0576 -4.525439,2.64663 -3.218595,0.37348 -2.781778,2.59154 -2.864384,0.55901 -1.605212,-2.60377 0.412936,-10.53929 0.832292,-2.72949 -0.363442,-4.50146 -1.166678,-1.88664 -1.041954,-8.48058 -1.738702,-1.99458 -0.434494,-3.46512 1.553947,-4.9657 0.07591,-4.94315 -1.597302,-1.92008 0.637519,-3.65491 -0.345956,-2.5961 0.216832,-8.51681 -1.174684,-0.17147 2.805618,-4.77352 0.37653,-0.78446 -0.270077,0.26066 -4.64607,6.44295 -0.490226,-2.89568 1.117104,-5.30485 -1.11934,1.34221 -0.730204,3.87738 0.280908,2.37259 -1.155222,5.20402 -0.658591,10.35067 -1.048664,4.16611 1.571227,3.76069 -0.359342,2.89905 -1.991076,8.63853 0.04012,1.84861 1.912539,2.90839 -0.225804,7.87747 0.517693,3.53466 3.384455,2.61291 0.88564,2.95357 3.197585,5.21133 0.278329,2.98471 -2.003097,1.26266 1.272215,0.93696 2.433454,4.39917 2.041632,0.17495 2.662674,-1.94732 2.034679,0.76259 3.133965,-2.04685 5.035652,-0.3254 4.501792,-1.44907 1.964758,-1.7009 1.548321,0.6634 -1.058751,5.41533 -1.642828,4.73625 -3.928323,6.41514 -3.271306,7.84274 -3.973008,7.30045 -6.453499,8.75781 -4.652208,3.81796 -3.323331,4.07789 -4.082207,6.44664 -1.520566,3.62098 -3.72704,4.63053 -1.415707,7.23354 -0.894268,1.07034 -0.696514,5.855 2.183484,3.57123 0.139437,6.25303 2.210813,7.18045 2.146176,2.10394 2.465128,13.43526 1.495628,3.49088 0.166155,4.25365 -1.107799,3.97849 -5.71015,5.97671 -0.730244,2.91989 -2.619091,5.39015 5.094087,10.21247 2.089787,8.71928 -3.471036,3.72366 -0.107824,1.5896 2.248803,3.48845 1.837414,6.56686 -0.578549,3.82729 0.889247,4.83291 0.05699,6.34191 -0.44371,3.50771 -1.703764,0.97613 -0.402211,1.41163 -3.742646,-0.68272 -1.374219,1.30581 -0.162964,1.60376 -3.919057,-3.39375 -3.108943,-3.80615 0.113146,-0.61079 -2.277764,-3.62141 -3.815324,-4.90007 -4.503247,-6.71554 -3.702127,-4.80057 -6.595145,-12.38167 -3.210307,-7.51879 -3.231865,-5.90292 -1.197097,-2.69447 -3.958566,-8.25576 -1.221826,-3.68673 -1.771325,-6.0561 -0.719649,-4.39562 -1.135612,-5.51527 -0.04261,-5.0563 -1.228801,-6.82566 -1.874221,-6.64616 -0.128068,-3.3092 -1.323498,-6.11203 -0.8994033,-3.41015 0.7533976,-1.09611 -0.9669261,-0.42251 -0.4793497,-3.21818 -1.1375987,-4.69116 -1.2644126,-5.36423 -0.8327228,-6.0862 0.14953,-8.36636 0.3751181,-1.61732 v 0 l -0.3158607,-0.79669 0.47997,-5.03888 0.2736678,-3.84739 -0.024756,-3.17602 -0.4111922,-0.60875 -0.010891,-3.09578 -0.2944276,1.16285 -0.5472281,-0.26458 -0.681398,1.41641 -0.1446477,-1.54014 0.2697012,-5.92837 -0.00374,-1.5223 -0.4511193,-0.0409 -0.250159,0.66721 -0.098768,0.49 -0.27047,2.12075 2.43e-5,-2.5e-4 3.9018808,-25.76958 6.574161,-25.22055 9.174412,-24.39521 11.674147,-23.30258 14.045978,-21.95464 z m 7.959679,-10.351747 -0.886495,1.100653 -0.507778,0.633226 1.55e-4,-1.95e-4 z M 4.4169979,233.49532 l 0.2065846,0.30282 -0.3975137,2.67067 -0.2476423,-0.85359 z m 491.9079821,52.69154 0.065,-0.40669 -0.10496,0.76995 -0.13256,0.88925 -0.006,-0.004 z m 0.22887,-1.55033 -0.12826,0.8107 0.0904,-0.7327 0.14813,-0.94897 z m -316.22031,-52.98425 -0.0558,0.43803 -0.44048,0.32979 -0.7707,-0.0121 -0.40346,-0.35472 0.0869,-0.48546 0.54608,-0.34394 0.63832,0.0172 z m -1.13256,-4.17046 0.753,-0.22642 0.80815,0.33092 0.0372,0.65318 -0.62635,0.5783 -0.90605,-0.10452 -0.30856,-0.6271 z m -0.31901,7.20662 0.96082,-0.0676 0.4727,0.41839 0.18259,0.6276 -0.36799,0.36613 -0.84847,0.1046 -0.61865,-0.31382 -0.1193,-0.47072 z m -70.75526,-96.17575 1.68671,-0.10723 -1.55069,2.77105 -0.95238,-0.46692 z m -33.594661,164.09769 -1.30334,-0.58942 -0.711175,-1.02467 -0.412568,-1.98446 0.856926,-0.11782 1.391175,2.45778 z m 39.204571,-259.010782 -1.89806,1.475951 -1.7046,1.164375 -1.06574,0.561708 1.06826,-0.82818 0.0125,-0.173553 1.4957,-1.185646 1.61106,-0.944681 z m -54.514561,46.742454 -0.507241,0.700558 -0.991126,1.09426 0.856917,-1.133822 z M 479.2583,219.73569 l 0.14125,-0.69312 0.44536,-0.0413 0.15838,0.74196 -0.0516,0.89886 -0.40691,0.20829 -0.30159,-0.49546 z M 62.157913,95.257636 l -1.115678,1.471271 -1.994401,2.022081 -0.418743,0.812627 -1.50453,1.770185 0.760898,-3.979492 1.219525,-1.273017 0.705022,0.435864 z m 2.982863,-9.414932 0.217562,-0.103903 -1.867002,2.483878 -3.937127,4.605137 -1.087284,0.883811 0.711277,-1.190015 1.991307,-2.397356 2.591187,-3.187898 z M 494.0589,219.02925 l 0.10449,0.19265 0.15913,-0.0127 0.005,-0.27306 -0.0975,-0.45883 0.12409,0.33854 0.0322,0.32882 -0.0216,0.23213 -0.18493,0.10317 -0.16074,-0.22336 -0.1277,-0.73599 z M 54.408556,104.50371 l -0.258996,-0.0343 0.449638,-0.7956 0.594073,-0.5908 -0.07935,0.59759 z m 70.686234,231.05173 0.46065,0.76856 -0.29531,0.79487 -1.07417,-0.083 -0.36318,-0.8199 0.46247,-0.60505 z m 367.53238,-83.14456 -0.0741,0.0999 -0.0682,-0.0763 -0.0248,-0.20954 0.0338,-0.20142 0.0632,-0.0618 0.0668,0.0752 0.0168,0.18481 z m -69.14482,-35.30417 0.18435,-0.90159 0.44911,-0.7311 0.0104,1.13178 -0.30702,1.39075 -0.74948,1.50249 -0.48924,0.22295 0.28561,-1.37227 z m -112.09168,26.9373 -0.48826,0.57711 -1.11223,0.15813 -1.10444,-0.31687 -0.75234,-0.75389 z m -308.6974194,5.64711 -0.097087,-0.20282 -0.043052,-0.70932 0.031096,-0.74415 0.1062259,-0.33121 0.1272435,0.24399 0.016695,0.78964 -0.053255,0.58927 z m 106.6637794,19.94975 0.53738,0.54625 0.25828,1.52536 -0.66896,-0.3181 -0.57897,-1.01575 z M 69.693415,80.908201 l -2.201204,2.455525 -1.685271,1.866926 -0.165407,0.0641 0.324826,-0.534374 1.820311,-2.188466 0.884931,-0.924004 0.469382,-0.289044 0.543603,-0.585571 z m 49.096155,256.605959 1.02565,0.20433 0.615,0.66414 0.004,0.72913 -1.22764,-0.10414 -0.71773,-0.48609 -0.27061,-0.69467 z m 247.11421,-289.98463 5.21721,4.038124 2.04501,2.273993 9.02351,7.416561 -2.31999,-0.298034 2.62933,3.85014 5.30062,4.42839 -2.0925,-0.648317 1.53065,2.113797 -0.52085,0.473968 -2.23315,-2.102056 -2.76415,-4.022414 -2.4333,-2.511098 -5.42162,-6.573345 -2.71498,-2.011529 -4.19998,-4.118416 0.27226,-0.406096 -1.1983,-1.334148 z m -171.69945,-30.503257 -3.15037,1.092627 -1.26041,0.02134 2.01726,-1.208776 2.87926,-0.966796 0.74357,0.237171 z m 109.66456,-6.722393 1.62116,0.204363 1.80873,0.93738 -2.6868,-0.173269 z m -1.70176,-1.3598265 2.32776,0.099643 1.7285,0.079802 -0.76739,0.5833683 z m -6.93784,-0.6491885 1.22952,-0.08782 4.80499,0.7108415 0.85795,0.6257855 -2.23648,0.2959799 -3.05148,-0.5054959 -1.88352,-0.6467172 z m -68.45311,-0.00811 -6.97356,0.8259338 -4.04943,1.0084402 -1.24272,0.309227 -2.79316,0.746717 -4.35235,1.537875 -1.97876,1.486913 0.62882,0.748811 -3.37172,0.25463 -1.6323,-0.400045 1.05836,-1.19013 6.63693,-2.679196 9.91841,-2.3997408 4.38402,-0.3558109 3.05575,-0.3831626 0.94915,0.053195 z m 33.59166,-2.9377106 2.12626,0.4979219 -4.20294,1.0023504 0.82675,-1.4703429 z m -4.59506,-0.6646992 2.24364,0.387819 0.11974,0.9037644 -3.95452,-0.0571 -1.598,-0.7907548 z m -31.94291,-0.4904838 1.16987,0.095279 2.09225,-0.07207 1.63342,-0.116778 1.38342,-0.011253 -6.84084,1.1910416 -2.4583,0.2215357 0.10013,-0.3720814 z m 30.2629,-0.5460783 1.67474,0.4608092 -3.58628,0.5097497 z M 170.3907,485.93084 l -0.0174,-0.006 -1.76948,-0.63166 -1.43589,-0.85515 2.61616,0.68534 -2.59097,-1.07129 1.50016,0.44417 2.46418,0.28303 2.54382,0.38794 -1.87782,-0.83496 3.01671,0.83147 -1.28264,-0.58754 3.97822,0.90383 -0.3031,-1.03722 1.18429,-0.43927 -4.11456,-1.76632 3.75676,0.67941 1.50696,0.67146 2.10381,-0.0809 2.48106,0.75568 -3.18059,-2.06773 4.33579,-2.29989 2.30844,0.45226 -1.63888,-1.45024 3.19138,0.59312 -2.83016,-1.32669 3.39295,-0.96398 3.13119,0.32259 9.01181,2.70036 1.18135,-0.34223 4.65904,0.17129 7.75831,0.64619 1.57845,-0.25718 1.99956,1.22511 0.4613,1.30181 -1.99126,1.46518 3.26099,0.58936 -0.45443,1.65087 1.07137,1.32401 2.44194,-0.61207 0.9696,-3.11351 6.50816,-1.60787 1.20685,-1.55498 8.95903,-1.77376 5.03051,-0.52096 4.12319,0.0864 2.75943,-0.5553 3.0146,0.42927 8.3423,-0.51468 0.23029,0.793 4.96824,-1.6787 4.41228,0.0615 6.3866,1.12835 3.7114,0.0578 1.63474,-1.05214 4.17318,-0.51304 2.41329,1.78838 -0.91914,0.82257 4.37408,-0.38261 0.0548,0.62766 12.47642,-1.90132 -0.15185,0.93241 2.35561,0.5575 4.82848,-1.76864 4.09736,-0.0734 -0.70383,0.69714 3.25001,-0.45142 3.25719,0.93387 3.07287,0.10443 0.31076,0.46052 -0.55799,0.66737 -0.72735,1.56961 3.26763,0.44612 1.76067,-0.77479 -1.74064,1.46296 0.81821,0.45969 -4.40943,2.09007 2.41906,-0.87743 0.22722,0.69036 -3.37963,1.40699 -5.23077,1.63113 -4.97104,1.09079 -6.65536,1.68005 -6.29239,1.68572 -5.60371,1.42707 -3.22158,0.39725 -3.49811,0.72082 -5.37967,0.89427 -6.06066,1.07211 -5.24814,0.64808 -2.03605,0.19289 -2.03756,0.17616 -2.03894,0.15942 -2.04018,0.14267 -2.04128,0.1259 -2.04225,0.10914 -2.04307,0.0924 -2.04377,0.0756 -2.04432,0.0588 -2.04473,0.042 -2.045,0.0252 L 250,499 v 0 0 0 0 0 0 0 0 0 0 0 0 0 0 0 0 0 0 0 0 0 0 0 0 0 0 0 0 0 0 0 0 0 0 0 0 0 0 0 0 0 0 0 0 0 0 0 0 0 0 0 0 0 0 0 0 0 0 0 0 0 0 0 0 0 0 0 0 0 0 0 0 0 0 0 0 0 0 0 0 0 0 0 0 0 0 0 0 0 0 0 0 0 0 0 0 0 0 0 0 0 0 0 0 0 0 0 0 0 0 0 0 0 0 0 0 0 0 0 0 0 0 0 0 0 0 0 0 0 0 0 0 0 0 0 0 0 0 0 0 0 0 0 0 0 0 0 0 0 0 0 0 0 0 0 0 0 0 0 0 0 0 0 0 0 0 0 0 0 0 0 0 0 0 0 0 0 0 0 0 0 0 0 0 0 0 0 0 0 0 0 0 0 0 0 0 0 0 0 0 0 0 0 0 0 0 0 0 0 0 0 0 0 0 0 0 0 0 0 0 0 0 0 0 0 0 0 0 0 0 0 0 0 0 0 0 0 0 0 0 0 0 0 0 0 0 0 0 0 0 0 0 0 0 0 0 0 0 0 0 0 0 0 0 0 0 0 0 0 0 0 0 0 0 0 0 0 0 0 0 0 0 0 0 0 0 0 0 0 0 0 0 0 0 0 0 0 0 0 0 0 0 0 0 0 0 0 0 0 0 0 0 0 0 0 0 0 0 0 0 0 0 0 0 0 0 0 0 0 0 0 0 0 0 0 0 0 0 0 0 0 0 0 0 0 0 0 0 0 0 0 0 0 0 0 0 0 0 0 0 0 0 0 0 0 0 0 0 0 0 0 0 0 0 0 0 0 0 0 0 0 0 0 0 0 0 0 0 0 0 0 0 0 0 0 0 0 0 0 0 0 0 0 0 0 0 0 0 0 0 0 0 0 0 0 0 0 0 0 0 0 0 0 0 0 0 0 0 0 0 0 0 0 0 0 0 0 0 0 0 0 0 0 0 0 0 0 0 0 0 0 0 0 0 0 0 0 0 0 0 0 0 0 0 0 0 0 0 0 0 0 0 0 0 0 0 0 0 0 0 0 0 0 0 0 0 0 0 0 0 0 0 0 0 0 0 0 0 0 0 0 0 0 0 0 0 0 0 0 0 0 0 0 0 0 0 0 0 0 0 0 0 0 0 0 0 0 0 0 0 0 0 0 0 0 0 0 0 0 0 0 0 0 0 0 0 0 0 0 0 0 0 0 0 0 0 0 0 0 0 0 0 0 0 0 0 0 0 0 0 0 0 0 0 0 0 0 0 0 0 0 0 0 0 0 0 0 0 0 0 0 0 0 0 0 0 0 0 0 0 0 0 0 0 0 0 0 0 0 0 0 0 0 0 0 0 0 0 0 0 0 0 0 0 0 0 0 0 0 0 0 0 0 0 0 0 0 0 0 0 0 0 0 0 0 0 0 0 0 0 0 0 0 0 0 0 0 0 0 0 0 0 0 0 0 0 0 0 0 0 0 0 0 0 0 0 0 0 0 0 0 0 0 0 0 0 0 0 0 0 0 0 0 0 0 0 0 0 0 0 0 0 0 0 0 0 0 0 0 0 0 0 0 0 0 0 0 0 0 0 0 0 0 0 l 2.04514,-0.008 2.04501,-0.0252 2.04473,-0.042 2.04432,-0.0588 2.04376,-0.0756 2.04308,-0.0924 2.04225,-0.10914 2.04128,-0.1259 2.04018,-0.14267 2.03894,-0.15942 1.31255,-0.11155 -2.4e-4,3e-5 -26.04729,0.91371 -26.0001,-1.81397 -25.66806,-4.52179 z m 233.65303,-74.35566 1.83655,1.9918 4.48659,-1.51694 -0.11997,1.25072 -3.46961,4.1882 -2.96234,3.0343 -1.14723,0.17319 -1.78679,1.14334 -1.22934,-0.27406 0.96448,-3.00998 z m -4.69145,-16.49883 -0.48691,2.14825 -3.20218,-0.25124 0.71191,-2.31843 z m 8.48341,-97.16053 3.37631,-0.44813 1.65503,2.06754 -3.02522,1.54425 -3.22853,-0.53071 z m 36.39808,-1.64988 0.23741,6.90086 0.69192,1.20622 -0.66346,4.81151 0.37368,3.20706 1.63054,-1.4789 1.39678,3.2921 -1.32156,6.2787 0.49434,4.94157 -1.10887,5.12463 1.99347,3.91077 1.60687,0.9176 0.0547,4.21969 -0.10437,4.51144 1.06017,1.97312 -1.0838,2.85262 0.90918,2.43204 -0.52004,7.53345 -1.92139,4.32159 -2.6312,6.99143 -8.86452,13.36185 -2.08206,1.54729 -4.66956,5.30459 -2.12348,3.02949 -2.62901,2.52799 -4.32055,6.27948 -3.28457,0.43013 -4.62162,2.72307 -1.81825,1.7437 -0.63042,-2.05107 -4.34491,1.11187 -1.26647,-1.66804 -1.62852,0.11144 -1.70318,-1.76963 0.055,-2.41675 1.3658,-1.94295 0.11391,-2.62006 -2.07632,-0.71417 2.53235,-3.30497 0.47443,-2.00187 -3.06749,2.81042 2.0291,-6.27838 -3.43217,2.01876 -3.38221,3.9479 0.1311,-3.86791 -0.0187,-4.56961 -4.18155,-1.88461 -2.06888,-2.05214 -6.50769,0.78815 -5.76057,2.14849 -3.19208,-0.15015 -7.38897,3.25196 -2.86722,2.96022 -5.90937,-0.42986 -4.87757,0.38437 -6.23754,3.52175 -5.68106,0.50509 -4.14083,-2.45385 0.43997,-3.0367 2.46318,-0.84675 1.70129,-6.00959 -1.00609,-5.34768 0.68381,-2.76723 -1.61959,-5.22982 0.11365,-3.0446 -0.80242,-1.57611 -1.401,-2.17022 -0.68423,-3.15587 2.77775,1.09343 1.50835,-0.47516 -0.76467,-2.25536 -0.30377,-4.25021 1.59904,-2.13861 0.26069,-3.73476 1.81917,-2.88771 1.2241,0.57884 1.12177,-0.64581 3.17964,-1.33104 5.63525,-3.90974 1.80751,0.72317 3.07536,-1.48796 10.54696,-2.97446 3.92141,-4.85514 1.96729,-1.24305 0.0953,-3.68211 3.22377,-2.83068 1.40838,3.89989 1.28102,-1.27999 -0.45548,-3.93343 2.41386,-0.43281 1.02707,-2.67135 1.97849,-0.77252 2.00526,-3.50146 6.70595,-3.38816 2.6625,4.20441 4.5268,1.02571 -0.44961,-2.24402 3.47015,-6.19983 3.2214,-2.99177 5.3903,-0.41772 0.0632,-2.76662 1.69192,-0.37475 1.04138,1.95755 2.68309,0.5333 3.36326,0.67489 2.69985,-0.85097 1.11987,1.72769 -1.2626,2.81719 -2.24698,1.02718 -0.7938,3.9646 -1.96377,2.17607 2.86496,5.04186 5.61139,4.17037 1.81424,3.27988 2.45927,-1.05798 2.91615,-5.77995 3.39759,-14.88775 2.63191,-6.79076 z m -110.57633,-55.31743 2.34537,1.85654 3.77834,-1.1699 1.13656,-3.27836 6.2575,-2.0901 3.77104,-6.24117 4.32504,-1.68407 2.78078,-2.4666 3.28601,-6.33574 3.85608,2.74884 0.22085,2.08201 2.45047,0.48376 3.36484,2.57411 -2.57027,1.31573 0.34806,1.96259 -4.07748,1.23241 -0.3675,3.14336 2.59481,5.09014 -0.85028,1.63341 4.40408,4.01196 -4.54973,0.65491 -1.41731,5.80991 -4.16259,5.38836 0.83865,1.99312 -2.60776,6.00936 -5.33596,2.43538 -0.29841,-1.92841 -3.54393,-1.16636 -2.02226,-0.94925 -2.02156,0.80591 -3.20851,0.52635 -1.86784,-2.17643 -4.396,-0.17621 -1.28701,-8.24822 -2.65247,-1.08631 0.12095,-3.7551 -1.83613,-3.57104 0.96657,-3.16479 z M 78.075859,108.709 l -0.611291,-0.38817 0.123741,-0.87364 0.986227,-1.00955 0.866651,-0.0797 0.568422,-0.71781 0.991683,0.18635 2.250277,-0.9944 -2.211971,1.79332 -0.0029,0.002 -0.203855,0.78462 -1.020874,0.47828 -0.63552,0.64322 z m 411.069011,210.65041 -0.66074,2.23891 -0.4858,1.44622 0.47526,-1.64788 z m -1.58438,4.90158 -0.41516,1.46125 -0.60001,1.87497 -0.38048,1.03417 -0.0369,-0.15073 0.29493,-1.15858 0.61737,-1.9487 0.47861,-1.31467 z M 101.99653,49.760213 l -1.54562,1.153556 -2.008647,1.578539 -2.319508,1.763199 -2.336824,1.877355 -1.336606,1.050569 0.07031,-0.05887 1.93e-4,-1.58e-4 z m -37.264628,55.548647 2.335726,0.67807 0.0714,1.05356 -2.543702,0.38248 -0.946382,-1.28871 z m 7.717503,-12.077901 0.17047,1.465117 -0.807429,1.020918 -0.260462,-1.762123 z M 372.8868,290.48636 l 3.22347,0.89318 1.57953,1.75983 -2.70551,0.75716 -2.58172,-1.20401 -3.58417,-1.29356 z m 16.33445,-1.6593 1.43873,-0.44635 1.05041,-1.0113 6.32137,-2.20339 2.84527,0.78368 -4.39959,1.99697 -5.39349,3.0892 -2.5496,2.90353 -4.63599,1.5837 -0.35885,-2.54356 2.51672,-2.12477 0.99647,-1.4259 z m -28.04674,-2.84191 -1.05456,2.29616 -2.00428,-0.41531 0.83978,-2.04377 z m 4.44817,-0.89921 3.78371,0.89752 0.10047,1.37895 -2.71537,0.15207 -3.35726,0.70021 -1.79086,-0.39535 0.76451,-1.88812 z m 22.41691,-0.61404 -0.0774,0.91293 -3.84858,1.22603 -0.72208,0.67043 -5.06058,1.60839 -5.61803,-0.49225 -0.51969,-1.92862 1.79703,-0.55534 4.89739,0.27039 z m -31.94627,0.83156 1.51062,1.21139 -1.48924,0.91804 -1.75316,-0.48258 -1.23094,-0.90318 0.10487,-0.67748 z m 78.58166,0.0133 -3.30872,1.31279 -0.25301,-2.98377 1.64379,-2.07648 2.40851,-0.6647 0.55311,1.99836 z m -80.20142,-5.44362 -1.4002,1.3208 -4.38148,0.15969 -1.93923,-1.40862 z m -35.55593,-3.80432 4.9294,0.31352 4.45935,1.2429 2.18956,1.85688 5.95417,0.63208 2.38087,-1.63272 6.17961,1.45226 2.30514,3.05074 4.85179,0.94213 -0.57229,2.48726 0.83425,1.57469 -5.36796,-2.14157 -2.12158,0.72991 -8.70457,-1.44122 -4.87514,-1.64598 -3.79306,0.37872 -7.34447,-1.75107 0.12618,-1.84536 -4.46869,-0.75154 -0.42744,-1.39298 z m 105.07774,-2.53092 1.72993,-0.58251 -0.0655,3.67985 -0.45594,2.23079 -2.19594,0.70009 0.50806,-2.93485 z m -24.12259,-9.70373 0.52429,1.82694 -1.77925,1.09859 -2.17106,-0.44726 -0.35235,-2.20376 1.81513,-1.02727 z m 6.97978,-1.42902 6.55468,2.29094 -0.93917,2.088 -3.02624,-1.44298 -2.93273,-0.5583 -3.04319,0.14626 -1.08515,-2.13508 z m -80.61076,-1.32725 1.58728,0.7392 0.23034,1.3875 -1.6174,0.74094 -1.90888,-0.69319 -0.0233,-1.65927 z m 64.84166,-3.97042 9.44666,-0.12676 -0.98676,1.90991 -8.93106,-0.1829 z m 36.37841,-0.19868 -0.46973,-2.01556 2.3782,0.76439 2.68566,-0.273 -0.0712,1.88938 -2.43573,0.13514 z m -109.37042,-0.43768 2.34684,3.58959 1.97619,1.30098 -0.32109,1.21774 -2.20962,0.72594 -0.68684,-1.43847 -1.41782,-2.32348 -2.78008,-0.43393 -0.44501,-1.95612 1.33208,0.0107 z m -29.72918,-3.04226 1.72867,2.28264 0.78601,1.79577 -1.36312,0.35587 -1.55472,-1.28076 -1.52589,-2.08587 0.39328,-1.33583 z m 152.64607,35.97884 -2.35736,-4.28638 -3.07726,0.12814 0.97816,-2.48995 -2.1194,-9.24168 -5.96274,-3.89646 -2.2371,-0.25316 -3.983,-2.84167 -2.96619,1.32833 -0.009,-2.41896 -2.19242,-3.80863 2.31048,-1.3803 -2.65473,-1.10028 -0.79396,-2.53982 -2.76748,-0.32244 0.96105,-2.7234 4.75018,-1.99634 3.99728,1.57834 1.31189,9.29001 3.00685,2.17396 2.99124,-4.96305 2.46175,-0.63086 1.72557,-2.5639 5.82138,3.85629 3.03663,0.99217 7.901,3.74346 4.08992,6.05891 -0.38646,2.43013 3.90562,2.33148 0.6408,3.1506 -2.05893,0.21321 0.16919,3.11435 1.83864,2.55252 0.46741,4.19931 1.32727,-0.24871 -0.1205,2.19716 1.65333,0.97814 -0.47385,1.48737 1.26126,2.11349 -5.6576,-1.66922 -1.68541,-3.02351 -1.54394,-5.89572 -5.17903,-0.49588 -2.68006,1.56316 0.76626,2.69191 -2.14599,1.5793 z m -158.89368,-46.88167 2.27276,3.18887 -1.00882,1.79611 -3.06637,-4.09847 z m 110.86434,0.19766 1.17873,1.15308 -3.76493,4.38982 -4.51276,-0.51032 -8.52556,0.98686 -1.15103,2.76687 0.79424,4.55064 3.09227,-2.32632 6.46383,-1.53766 2.92313,0.36497 -1.48484,1.89191 -4.71786,1.24437 -2.53334,2.59309 2.18518,4.42321 -0.49347,2.73229 2.48107,2.7724 -5.2977,1.99508 0.62696,-2.46706 -2.63806,-2.37596 0.79004,-3.38511 -2.63616,1.97713 -0.62489,9.94388 -3.61042,-0.66578 1.22052,-4.50831 -1.11475,-3.84438 -1.98332,-1.46217 2.2763,-4.86588 0.0142,-3.28287 1.55229,-2.52273 1.23726,-5.98303 1.03914,-1.48383 2.10528,-1.17016 2.13547,1.01125 8.42208,0.70728 z m 10.82021,-1.04846 -1.0101,3.28896 3.05993,-2.09829 1.15654,1.0944 -2.82838,3.05007 3.86434,0.52774 -0.46638,2.07643 -3.46712,0.2549 1.34966,3.15514 -0.7572,1.63606 -3.25611,-3.16791 -0.86909,-3.3275 -0.0248,-3.29086 1.45688,-4.573 z m -130.03612,-15.99554 2.69718,1.39879 5.89074,0.12942 3.52692,5.07462 6.22832,3.90261 3.49889,4.44391 2.08271,-0.58488 4.56909,3.93072 1.47835,2.66104 5.49028,2.32332 -1.75479,4.06498 4.34703,1.45906 2.08731,5.4441 3.09658,0.50744 1.82569,3.70578 -1.45265,11.14586 -1.09531,0.26238 -1.64868,-1.42072 -2.43514,1.21604 -3.47639,-3.85053 -5.75033,-4.16123 -5.05921,-6.09304 -3.38628,-7.69176 -2.95155,-3.97599 -2.02217,-0.76126 -2.6151,-7.22437 -3.78138,-2.06322 -0.25089,-1.97366 -9.43916,-8.50325 -1.48044,-2.43541 z m -11.9755,-33.02064 1.13459,-2.69238 1.16887,1.70963 -1.4092,4.34866 -1.10624,5.18108 -0.68526,-1.87605 -0.0978,-1.87464 z m 123.93335,-81.12341 2.35754,0.74143 1.84531,2.38642 0.49652,5.70669 -1.364,1.37347 -1.58737,-0.90442 -1.36726,-3.13335 0.27369,-1.05018 -1.27429,-1.66269 -0.86953,0.50867 -1.53889,-1.88536 z m 7.47936,-2.07788 2.22232,0.80148 -0.27089,3.22184 -2.02859,-0.69272 -0.97064,2.01281 -2.13767,-2.1104 0.34619,-1.88439 1.82314,0.0799 z m 2.62282,-23.971762 5.63572,5.994864 0.46242,3.950353 1.94316,3.411146 1.15853,3.805589 1.68704,1.90065 -0.45283,2.96088 -1.10792,-1.44629 -2.52456,2.14235 -3.32978,-0.0983 -0.15556,3.41002 -2.43223,-0.20096 -0.6599,-2.5595 -2.93295,-0.64956 -1.97491,1.31165 -5.66284,1.15745 -0.63894,-1.26617 3.47435,-4.26398 3.63646,-0.47168 3.35725,0.73549 -1.0448,-6.12965 0.84659,-0.870435 1.42559,1.882525 1.45699,-0.681439 0.71791,-3.389197 -1.42957,-4.520879 -2.73402,-3.611158 0.40486,-1.575258 z m -8.153,-12.950393 1.12111,-0.753182 5.33897,4.893275 3.22543,0.174657 1.73691,2.37628 -1.63609,2.035976 0.92142,2.342721 -4.12331,-1.51729 -1.27115,0.644779 1.58072,1.680251 -1.04962,0.916678 -3.50363,-4.074551 1.52491,-1.519947 z m -178.56119,135.475885 3.91842,5.26065 2.09241,4.972 -0.91518,3.73174 -4.69468,2.32621 -3.02537,-3.81571 -0.73276,-9.98974 z m -117.712937,94.14322 2.485827,4.00153 3.39972,10.1493 -0.419893,2.20686 -2.217896,-1.78323 1.454984,4.20908 -0.07991,5.16669 -0.266893,19.1075 0.622871,9.76084 -4.803494,2.55401 -3.827688,-2.29943 -1.657427,-2.34037 -1.071998,-3.78218 -2.961351,-4.88687 -0.301472,-3.73039 1.208381,-5.68132 -3.990606,-10.11442 1.544617,-5.11769 3.635292,-2.16698 1.885378,-2.12915 4.257468,-7.5244 0.07029,-4.56757 z M 203.7195,6.117312 l -0.80087,0.2595092 -4.25315,0.8955309 0.76592,-0.315726 3.06004,-0.7462984 1.88056,-0.3074064 z m 4.3832,-1.2401385 -3.34874,0.8857824 -1.82688,0.264437 -8.30082,1.784851 4.12253,-1.1592736 6.92266,-1.5319509 1.69581,-0.1945471 -3.30063,0.7180717 z m 3.63921,-0.376527 -0.7684,0.3924583 -3.62346,0.5264383 -0.90985,0.050778 2.99029,-0.7634843 z m 226.12538,407.2399335 -1.44269,1.87722 0.63975,-0.42494 -2.15998,2.54733 -6.57132,6.40726 -2.09034,1.69148 -5.26193,4.99814 -2.62064,2.01546 -0.76433,0.0705 1.17176,-2.38941 4.97693,-4.61535 3.78853,-2.31101 3.58175,-3.08951 5.34653,-5.53033 z m 16.06044,-21.02179 -2.36007,4.20981 -3.06148,4.31061 -1.79135,2.7963 -0.72298,1.24892 1.31792,-1.5544 -0.40401,0.60108 -3.79692,4.69821 -1.10957,1.17812 -2.04189,2.43819 -4.4019,4.70383 0.52535,-0.76595 2.47394,-2.74954 1.68418,-2.1046 0.78162,-1.40683 2.05962,-2.16461 2.96733,-3.66461 3.61954,-5.19357 3.91425,-6.33655 z m -60.86198,-182.29251 2.35329,0.8935 1.03879,5.0369 0.84222,4.10319 -1.10601,4.2193 -1.26938,-3.36255 -1.72784,1.33761 1.29178,2.67115 -0.97349,2.48981 -2.23187,-0.0276 -3.45092,-3.45516 -0.55932,-5.04989 -1.98864,0.98175 -2.45905,-0.51881 -2.08351,1.9999 0.98566,-4.44211 5.08285,-2.56971 1.45603,0.92186 2.04365,-2.38917 2.58721,-0.33081 z m -8.96822,-5.84114 1.1577,0.64768 -1.20332,7.66346 -2.60985,-3.43524 1.6292,-1.20466 z m 2.54561,-0.42646 0.90326,3.46141 -1.95575,2.38737 z m -15.30576,-1.69358 0.92549,3.56768 -3.34769,3.52998 -1.22313,2.58712 -5.08442,3.75585 5.53871,-7.97641 1.36192,-1.59654 z m 16.69272,0.11833 1.92659,0.27942 1.38458,4.81065 -1.52714,0.43805 z m -7.76959,-1.34107 3.43594,0.43665 -1.47697,4.60645 -2.63344,0.62348 z m 8.8592,-3.39988 2.18553,1.33121 0.73202,4.17153 -1.02377,0.75012 -4.12263,-6.12996 z m -13.72487,-3.45086 2.39151,2.51682 -1.55426,2.41042 -3.87872,-5.52441 z m -4.1462,-21.6774 4.01301,0.0885 2.71992,6.02064 -0.52832,3.21126 -2.07149,1.61552 -0.32783,2.61124 1.90676,4.67795 2.15127,0.59866 0.40068,-1.23396 3.10707,0.72982 2.54528,1.86971 -1.06695,0.92794 3.15918,2.56106 -3.01832,0.36993 -2.31828,-2.53673 -1.00349,0.79363 -3.30824,-1.92003 -1.4372,0.10985 -2.98281,-0.64984 -0.30003,-2.46747 -2.23082,-1.71442 -1.8812,-6.54496 1.97013,1.46112 -0.85022,-6.40301 z m 103.04212,103.08032 1.56552,4.46867 -0.51603,1.53358 -1.33248,-3.99461 z m -4.5514,-5.6 -0.68085,5.4796 -2.11791,2.9619 -3.40712,0.68456 -2.56105,-2.26533 0.21855,-1.42866 3.71246,0.37227 3.55156,-3.08177 -0.12742,-2.78183 z m -2.11096,-6.41891 2.18717,1.46158 1.57644,4.29159 -0.52665,3.51624 -0.25144,-3.57192 -1.12519,-2.65694 -1.5569,-1.27585 z m 15.1469,31.63056 0.25462,1.78446 -0.46535,1.14187 -0.4667,-0.78984 0.0531,-1.54149 z m -2.48448,-2.83618 0.79743,-0.63892 0.74612,1.61578 -0.0871,1.70905 -0.79142,0.31757 -0.62412,-1.21754 z m 2.36158,-4.37239 0.44793,0.89003 -0.3745,4.04798 -0.47399,-1.53066 z m -2.85483,-3.32665 2.10303,2.98123 -0.25017,1.83009 -1.70389,-2.75954 z m -111.64414,-138.97968 0.98257,1.64478 0.68591,6.4909 -0.61036,4.93109 -1.61602,0.1992 -2.91574,-5.05314 -0.0941,-2.48671 1.79594,-5.04719 z m 116.12526,170.65344 -0.37981,3.05277 -0.19217,1.88845 -0.4444,-0.22154 0.28284,-1.91146 -0.13555,-0.82556 0.51978,-2.6176 z m -9.95246,20.76044 0.59701,0.0477 0.32199,2.90832 -0.40049,2.14204 0.003,3.58708 -0.74262,1.4703 -0.40052,-4.60555 z m -141.75679,-171.09395 2.24009,0.90542 -1.53124,2.45972 -0.20035,2.64455 -3.46975,2.38566 -3.92268,-1.63533 -0.61173,-3.16665 2.63737,-2.10993 2.53474,-0.83575 z"
     fill="#0000ff"
     stroke="none"
     stroke-width="0.938063"
     fill-opacity="1"
     stroke-opacity="1"
     stroke-linecap="round"
     stroke-linejoin="round"
     stroke-dasharray="none"
     id="path8644"
     transform="matrix(0.53301345,0,0,0.53301345,-12.009809,6.7466371)"
     clip-path="url(#clipPath9355-6)"
     style="fill:#ffffff;fill-opacity:0.542854" /><path
     d="m 342.44724,156.02391 -0.10231,0.70366 -2.07733,0.84696 -4.18598,1.17239 -4.56714,1.32035 0.30682,2.8196 -2.24875,0.93618 -1.30455,-4.97682 -4.62851,-0.90733 -2.075,0.86027 -5.41978,-2.0581 0.0231,-3.00945 -3.50809,-0.6421 -2.29686,-1.84296 -4.94881,2.14488 -5.94308,0.25672 -1.14011,1.47517 -1.84106,-0.19515 0.67893,5.29286 -2.34847,-1.69286 -3.82519,0.50465 -1.14648,-2.4933 -3.19774,-0.43488 1.13563,-3.62619 -2.53505,-0.48765 -1.31418,-3.56875 -3.67466,0.8425 -0.60458,-3.49121 4.19958,-4.45485 -0.55165,-6.59192 -4.57894,-3.68599 -0.75866,1.22733 -4.75104,-4.38355 -3.18083,1.19788 -2.51002,-1.01219 -4.39399,2.46144 -3.04215,2.89343 -3.81153,0.60074 -5.41603,-2.29703 -2.54325,0.85663 -2.59623,3.15097 -1.04929,-3.04055 -1.90269,0.94005 -8.19946,-0.0933 -3.37064,-1.66228 -3.53692,-3.53547 -2.20754,0.20972 -5.03796,-4.29466 -4.09995,0.49968 -4.95408,-2.77425 -2.30908,-4.85041 2.65125,-1.45495 -2.07881,-3.30335 0.88249,-2.95388 -2.13842,-1.02618 -1.21206,-2.97518 -1.93476,0.25014 -1.50894,-0.78287 -2.00188,-0.56494 -0.24046,-2.30385 -4.46036,-1.94684 1.3145,-0.725721 0.5091,-4.389583 -3.13494,-0.313217 0.11491,-2.854525 4.66092,-3.54083 2.55146,0.727866 3.91602,-2.154047 4.24681,-0.311055 1.10959,-1.105131 6.3286,-2.631298 2.2766,-2.999446 -1.2846,-5.903712 6.98134,-1.572594 3.22315,-5.032368 4.63209,1.165854 2.22593,-0.693674 1.16213,-3.962999 4.53829,-1.941985 1.41069,-0.229119 0.29267,1.618535 3.13531,1.753517 3.78501,0.975541 2.12031,3.23037 -0.45495,4.175962 8.1609,0.721044 5.87524,2.054423 3.51732,4.872968 9.95998,0.564807 6.83509,0.156123 1.44525,1.062562 9.77351,1.903776 4.90081,-2.232004 8.14294,-0.522336 2.45042,-1.021314 3.50972,-2.938401 -2.28398,-2.031127 0.9269,-2.287936 5.01118,1.050085 1.71567,-1.962103 2.97329,-0.17956 1.43544,-2.617006 3.75013,-1.214489 3.95251,0.369196 -0.841,-1.687089 -4.22482,-2.365696 -2.07124,-0.03287 -0.29986,0.584849 -4.22301,0.20848 -1.46994,-1.213293 0.54292,-4.852745 3.15818,0.873413 2.91785,-1.626601 -0.88766,-0.789361 0.91353,-4.735896 -2.82617,-1.703628 0.98174,-1.358066 3.01248,-1.045792 4.07987,-0.124989 4.14063,1.461082 3.31122,2.677864 3.08461,2.93876 5.65466,4.225287 3.37357,0.369332 5.15638,3.078548 1.82046,1.894183 3.22093,-0.07384 2.42868,-1.957707 2.3205,1.948337 -0.28027,1.329946 1.65916,2.973954 0.13314,2.173307 -2.19081,0.949344 -1.64684,1.190491 3.7234,4.560161 -0.15545,2.702728 -2.47665,-1.376862 0.6154,1.659232 -3.35943,1.443917 0.50834,1.817264 -3.58024,-0.755742 -0.30014,2.471332 -3.12409,2.679348 -3.37916,1.749584 -1.83103,2.370926 -1.82502,0.481565 0.88388,-2.17309 -1.81871,-0.527346 1.61954,-3.240846 -3.7808,-1.383414 -1.04453,2.403075 -2.1705,1.010287 -0.57153,2.349546 -3.63239,0.253827 -0.0167,1.668563 2.23846,1.64405 2.25168,-0.04728 1.51871,2.997401 1.62161,0.554253 2.92414,-2.460468 2.48149,1.136673 2.2011,-0.125975 1.61912,0.449309 -3.74832,2.847109 -2.89612,3.53154 -0.3465,3.07618 3.80749,1.45518 5.76748,5.51483 3.0425,5.15748 -4.78021,0.70692 5.46971,1.05382 -3.39011,2.40594 2.16616,-0.19993 2.51234,1.8875 -0.85436,2.06191 1.13329,2.79104 -1.01914,1.59503 -1.88292,4.62416 -0.92096,1.5859 0.2649,4.13015 -1.16078,0.94995 -1.41617,2.56663 -4.52947,3.97174 -1.73723,2.50802 -6.0819,0.49445 -1.84381,1.04271 -0.52202,0.10616 -2.92961,-1.44463 1.30613,2.61593 z m -9.8778,8.18731 2.24009,0.90542 -1.53124,2.45972 -0.20035,2.64455 -3.46975,2.38566 -3.92268,-1.63533 -0.61173,-3.16665 2.63737,-2.10993 2.53474,-0.83575 z"
     fill="#ff0000"
     stroke="none"
     stroke-width="0.938063"
     fill-opacity="1"
     stroke-opacity="1"
     stroke-linecap="round"
     stroke-linejoin="round"
     stroke-dasharray="none"
     id="path8648"
     transform="matrix(0.53301345,0,0,0.53301345,-12.009809,6.7466371)"
     clip-path="url(#clipPath9343-6)"
     style="fill:#000002;fill-opacity:1" /><path
     d="m 404.04373,411.57518 1.83655,1.9918 4.48659,-1.51694 -0.11997,1.25072 -3.46961,4.1882 -2.96234,3.0343 -1.14723,0.17319 -1.78679,1.14334 -1.22934,-0.27406 0.96448,-3.00998 z m -4.69145,-16.49883 -0.48691,2.14825 -3.20218,-0.25124 0.71191,-2.31843 z m 8.48341,-97.16053 3.37631,-0.44813 1.65503,2.06754 -3.02522,1.54425 -3.22853,-0.53071 z m 36.39808,-1.64988 0.23741,6.90086 0.69192,1.20622 -0.66346,4.81151 0.37368,3.20706 1.63054,-1.4789 1.39678,3.2921 -1.32156,6.2787 0.49434,4.94157 -1.10887,5.12463 1.99347,3.91077 1.60687,0.9176 0.0547,4.21969 -0.10437,4.51144 1.06017,1.97312 -1.0838,2.85262 0.90918,2.43204 -0.52004,7.53345 -1.92139,4.32159 -2.6312,6.99143 -8.86452,13.36185 -2.08206,1.54729 -4.66956,5.30459 -2.12348,3.02949 -2.62901,2.52799 -4.32055,6.27948 -3.28457,0.43013 -4.62162,2.72307 -1.81825,1.7437 -0.63042,-2.05107 -4.34491,1.11187 -1.26647,-1.66804 -1.62852,0.11144 -1.70318,-1.76963 0.055,-2.41675 1.3658,-1.94295 0.11391,-2.62006 -2.07632,-0.71417 2.53235,-3.30497 0.47443,-2.00187 -3.06749,2.81042 2.0291,-6.27838 -3.43217,2.01876 -3.38221,3.9479 0.1311,-3.86791 -0.0187,-4.56961 -4.18155,-1.88461 -2.06888,-2.05214 -6.50769,0.78815 -5.76057,2.14849 -3.19208,-0.15015 -7.38897,3.25196 -2.86722,2.96022 -5.90937,-0.42986 -4.87757,0.38437 -6.23754,3.52175 -5.68106,0.50509 -4.14083,-2.45385 0.43997,-3.0367 2.46318,-0.84675 1.70129,-6.00959 -1.00609,-5.34768 0.68381,-2.76723 -1.61959,-5.22982 0.11365,-3.0446 -0.80242,-1.57611 -1.401,-2.17022 -0.68423,-3.15587 2.77775,1.09343 1.50835,-0.47516 -0.76467,-2.25536 -0.30377,-4.25021 1.59904,-2.13861 0.26069,-3.73476 1.81917,-2.88771 1.2241,0.57884 1.12177,-0.64581 3.17964,-1.33104 5.63525,-3.90974 1.80751,0.72317 3.07536,-1.48796 10.54696,-2.97446 3.92141,-4.85514 1.96729,-1.24305 0.0953,-3.68211 3.22377,-2.83068 1.40838,3.89989 1.28102,-1.27999 -0.45548,-3.93343 2.41386,-0.43281 1.02707,-2.67135 1.97849,-0.77252 2.00526,-3.50146 6.70595,-3.38816 2.6625,4.20441 4.5268,1.02571 -0.44961,-2.24402 3.47015,-6.19983 3.2214,-2.99177 5.3903,-0.41772 0.0632,-2.76662 1.69192,-0.37475 1.04138,1.95755 2.68309,0.5333 3.36326,0.67489 2.69985,-0.85097 1.11987,1.72769 -1.2626,2.81719 -2.24698,1.02718 -0.7938,3.9646 -1.96377,2.17607 2.86496,5.04186 5.61139,4.17037 1.81424,3.27988 2.45927,-1.05798 2.91615,-5.77995 3.39759,-14.88775 2.63191,-6.79076 z"
     fill="#ff0000"
     stroke="none"
     stroke-width="0.938063"
     fill-opacity="1"
     stroke-opacity="1"
     stroke-linecap="round"
     stroke-linejoin="round"
     stroke-dasharray="none"
     id="path8650"
     transform="matrix(0.53301345,0,0,0.53301345,-12.009809,6.7466371)"
     clip-path="url(#clipPath9339-8)"
     style="fill:#000002;fill-opacity:1" /><path
     d="m 71.016226,202.49373 1.22565,-2.08465 2.433454,4.39917 2.041632,0.17495 2.662674,-1.94732 2.034679,0.76259 3.133965,-2.04685 5.035652,-0.3254 4.501792,-1.44907 1.964758,-1.7009 1.548321,0.6634 -1.058751,5.41533 -1.642828,4.73625 -3.928323,6.41514 -3.271306,7.84274 -3.973008,7.30045 -6.453499,8.75781 -4.652208,3.81796 -3.323331,4.07789 -4.082207,6.44664 -1.520566,3.62098 -1.651471,-3.58661 0.164097,-16.00922 2.863994,-5.04564 6.390811,-4.23183 2.937763,0.18392 5.064264,-6.85497 5.477717,-6.46582 h -3.171666 l -8.614611,-4.25072 -1.578643,-1.83393 -1.579812,-5.21754 z"
     fill="#ff0000"
     stroke="none"
     stroke-width="0.938063"
     fill-opacity="1"
     stroke-opacity="1"
     stroke-linecap="round"
     stroke-linejoin="round"
     stroke-dasharray="none"
     id="path8652"
     transform="matrix(0.53301345,0,0,0.53301345,-12.009809,6.7466371)"
     clip-path="url(#clipPath9335-9)"
     style="fill:#000002;fill-opacity:1" /><path
     d="m 250,499 -26.02758,-1.36405 -25.74243,-4.0772 -25.17522,-6.74568 -24.33219,-9.34025 L 125.5,465.64033 103.64148,451.44523 83.386482,435.04306 64.956941,416.61352 48.554771,396.35853 34.359677,374.5 22.527183,351.27743 13.186929,326.94524 6.4412483,301.77002 2.3640485,276.02759 1,250 2.3640476,223.97242 6.4412465,198.22999 13.186926,173.05477 22.527179,148.72258 34.359672,125.5 48.554766,103.64148 64.956936,83.386482 83.386476,64.956941 103.64147,48.554771 125.5,34.359677 148.72257,22.527183 173.05476,13.186929 198.22998,6.4412483 223.97241,2.3640485 250,1 l 26.02758,1.3640476 25.74243,4.0771989 25.17522,6.7456795 24.33219,9.340253 23.22258,11.832493 21.85852,14.195094 20.255,16.40217 18.42954,18.42954 16.40217,20.254994 14.19509,21.85853 11.8325,23.22257 9.34025,24.33219 6.74568,25.17522 4.0772,25.74243 L 499,250 l -1.36405,26.02758 -4.0772,25.74243 -6.74568,25.17522 -9.34025,24.33219 -11.83249,23.22258 -14.1951,21.85852 -16.40217,20.255 -18.42954,18.42954 -20.25499,16.40217 -21.85853,14.19509 -23.22257,11.8325 -24.33219,9.34025 -25.17522,6.74568 -25.74243,4.0772 z"
     fill="none"
     fill-opacity="1"
     stroke="none"
     stroke-width="1.87611"
     id="path8658"
     transform="matrix(0.53301345,0,0,0.53301345,-12.009809,6.7466371)"
     clip-path="url(#clipPath9349-3)" /><g
     id="g9959"
     transform="matrix(0.41971443,0,0,0.41971443,-35.18363,175.95897)"
     style="stroke-width:2.38257"><rect
       style="opacity:1;fill:#000002;fill-opacity:1;stroke-width:7.14771;stroke-linecap:round;stroke-linejoin:round;stop-color:#000000"
       id="rect9783"
       width="67.609978"
       height="27.246832"
       x="325.93277"
       y="-221.07387" /><text
       xml:space="preserve"
       style="font-style:normal;font-weight:normal;font-size:26.6667px;line-height:1.25;font-family:sans-serif;fill:#e8c020;fill-opacity:1;stroke:none;stroke-width:2.38257"
       x="332.45908"
       y="-197.96477"
       id="text9729"><tspan
         sodipodi:role="line"
         id="tspan9727"
         x="332.45908"
         y="-197.96477"
         style="font-style:normal;font-variant:normal;font-weight:bold;font-stretch:normal;font-size:26.6667px;font-family:Roboto;-inkscape-font-specification:'Roboto Bold';fill:#e8c020;fill-opacity:1;stroke-width:2.38257">CHN</tspan></text></g><g
     id="g10189"
     transform="matrix(0.41971443,0,0,0.41971443,-186.35716,97.171914)"
     style="stroke-width:2.38257"><rect
       style="fill:#000002;fill-opacity:1;stroke-width:7.14771;stroke-linecap:round;stroke-linejoin:round;stop-color:#000000"
       id="rect9783-97-2"
       width="70.409462"
       height="27.246832"
       x="547.92627"
       y="47.130703" /><text
       xml:space="preserve"
       style="font-style:normal;font-weight:normal;font-size:26.6667px;line-height:1.25;font-family:sans-serif;fill:#e8c020;fill-opacity:1;stroke:none;stroke-width:2.38257"
       x="554.45258"
       y="70.239799"
       id="text9729-3-9"><tspan
         sodipodi:role="line"
         id="tspan9727-6-3"
         x="554.45258"
         y="70.239799"
         style="font-style:normal;font-variant:normal;font-weight:bold;font-stretch:normal;font-size:26.6667px;font-family:Roboto;-inkscape-font-specification:'Roboto Bold';fill:#e8c020;fill-opacity:1;stroke-width:2.38257">SOM</tspan></text></g><g
     id="g10083"
     transform="matrix(0.41971443,0,0,0.41971443,-34.170428,101.84071)"
     style="stroke-width:2.38257"><rect
       style="fill:#000002;fill-opacity:1;stroke-width:7.14771;stroke-linecap:round;stroke-linejoin:round;stop-color:#000000"
       id="rect9783-9"
       width="63.899029"
       height="27.246832"
       x="520.92883"
       y="113.82211" /><text
       xml:space="preserve"
       style="font-style:normal;font-weight:normal;font-size:26.6667px;line-height:1.25;font-family:sans-serif;fill:#e8c020;fill-opacity:1;stroke:none;stroke-width:2.38257"
       x="527.45514"
       y="136.93121"
       id="text9729-2"><tspan
         sodipodi:role="line"
         id="tspan9727-2"
         x="527.45514"
         y="136.93121"
         style="font-style:normal;font-variant:normal;font-weight:bold;font-stretch:normal;font-size:26.6667px;font-family:Roboto;-inkscape-font-specification:'Roboto Bold';fill:#e8c020;fill-opacity:1;stroke-width:2.38257">AUS</tspan></text></g><rect
     style="fill:#e8c020;fill-opacity:1;stroke-width:3;stroke-linecap:round;stroke-linejoin:round;stop-color:#000000"
     id="rect10680"
     width="4.8632717"
     height="1.5921522e-06"
     x="155.07225"
     y="156.04665" /><g
     id="g13721"
     transform="translate(36.889275,-105.39576)"><text
       xml:space="preserve"
       style="font-style:normal;font-weight:normal;font-size:29.3881px;line-height:0.95;font-family:sans-serif;fill:#000002;fill-opacity:1;stroke:none;stroke-width:1"
       x="0"
       y="280"
       id="text6484-1-4"><tspan
         sodipodi:role="line"
         id="tspan6482-9-7"
         x="0"
         y="280"
         style="font-style:italic;font-variant:normal;font-weight:bold;font-stretch:normal;font-family:Roboto;-inkscape-font-specification:'Roboto Bold Italic';fill:#000002;fill-opacity:1;stroke-width:1" /><tspan
         sodipodi:role="line"
         x="0"
         y="308.94006"
         style="font-style:normal;font-variant:normal;font-weight:bold;font-stretch:normal;font-family:Roboto;-inkscape-font-specification:'Roboto Bold';fill:#000002;fill-opacity:1;stroke-width:1"
         id="tspan13249">countries</tspan></text><text
       xml:space="preserve"
       style="font-style:normal;font-weight:normal;font-size:48.8825px;line-height:0.95;font-family:sans-serif;fill:#000002;fill-opacity:1;stroke:none;stroke-width:0.999998"
       x="-23.856449"
       y="289.49255"
       id="text6484-1-4-1"><tspan
         sodipodi:role="line"
         x="-23.856449"
         y="289.49255"
         style="font-style:italic;font-variant:normal;font-weight:bold;font-stretch:normal;font-family:Roboto;-inkscape-font-specification:'Roboto Bold Italic';fill:#000002;fill-opacity:1;stroke-width:0.999998"
         id="tspan13249-6">geo</tspan></text><g
       id="g11020"
       transform="matrix(0.75958517,0,0,0.80595582,20.317421,-6.2802122)"
       style="stroke-width:1.27807"><ellipse
         style="opacity:1;fill:#000002;fill-opacity:1;stroke-width:3.83422;stroke-linecap:round;stroke-linejoin:round;stop-color:#000000"
         id="path10844"
         cx="28.32604"
         cy="351.96793"
         rx="14.87405"
         ry="15.01592" /><text
         xml:space="preserve"
         style="font-style:normal;font-weight:normal;font-size:20px;line-height:1.25;font-family:sans-serif;fill:#e8c020;fill-opacity:1;stroke:none;stroke-width:1.27807"
         x="16.691118"
         y="355.82446"
         id="text10788"><tspan
           sodipodi:role="line"
           id="tspan10786"
           x="16.691118"
           y="355.82446"
           style="font-style:normal;font-variant:normal;font-weight:bold;font-stretch:normal;font-size:20px;font-family:Roboto;-inkscape-font-specification:'Roboto Bold';fill:#e8c020;fill-opacity:1;stroke-width:1.27807">.js</tspan></text></g></g></svg>
